<?xml version="1.0" encoding="iso-8859-1"?>
<!-- Generator: Adobe Illustrator 16.0.0, SVG Export Plug-In . SVG Version: 6.00 Build 0)  -->
<!DOCTYPE svg PUBLIC "-//W3C//DTD SVG 1.1//EN" "http://www.w3.org/Graphics/SVG/1.1/DTD/svg11.dtd">
<svg version="1.1" id="&#x41A;&#x43E;&#x43C;&#x43F;&#x43E;&#x43D;&#x435;&#x43D;&#x442;&#x44B;"
	 xmlns="http://www.w3.org/2000/svg" xmlns:xlink="http://www.w3.org/1999/xlink" x="0px" y="0px" width="1400px" height="1200px"
	 viewBox="0 0 1400 1200" enable-background="new 0 0 1400 1200" xml:space="preserve">
<g>
	<g>
		<g>
			<rect x="680.979" y="476.271" fill="#BAAF98" width="37.858" height="723.729"/>
		</g>
	</g>
	<g>
		<g>
			<rect x="29.444" y="1093.895" fill="#BAAF98" width="1340.928" height="37.856"/>
		</g>
	</g>
	<rect x="143.015" y="1050.215" fill="#979695" width="189.74" height="3.857"/>
	<g>
		<g>
			<rect x="1332.517" y="476.271" fill="#BAAF98" width="37.855" height="723.729"/>
		</g>
	</g>
	<g>
		<polygon fill="#99C45A" points="915.561,476.271 1152.689,0 1389.817,476.271 		"/>
		<polygon fill="#99C45A" points="10,476.271 247.128,0 484.257,476.271 		"/>
		<rect x="247.128" fill="#99C45A" width="905.561" height="476.271"/>
	</g>
	<g>
		<g>
			<rect x="29.444" y="476.271" fill="#BAAF98" width="37.857" height="723.729"/>
		</g>
	</g>
	<rect x="625.648" y="715.616" fill="#E18C44" width="8.942" height="440.53"/>
	<rect x="600.188" y="1047.492" fill="#6558A0" width="8.942" height="135.133"/>
	<rect x="587.133" y="715.616" fill="#E18C44" width="42.986" height="8.942"/>
	<g id="&#x411;&#x43E;&#x439;&#x43B;&#x435;&#x440;">
		<linearGradient id="SVGID_1_" gradientUnits="userSpaceOnUse" x1="351.5205" y1="886.2988" x2="577.6279" y2="886.2988">
			<stop  offset="0" style="stop-color:#979695"/>
			<stop  offset="0.4397" style="stop-color:#BCBBBC"/>
			<stop  offset="0.5931" style="stop-color:#BCBBBC"/>
			<stop  offset="1" style="stop-color:#979695"/>
		</linearGradient>
		<rect x="351.521" y="678.276" fill="url(#SVGID_1_)" stroke="#6B6966" stroke-miterlimit="10" width="226.107" height="416.044"/>
		<linearGradient id="SVGID_2_" gradientUnits="userSpaceOnUse" x1="351.5205" y1="1084.2158" x2="577.6279" y2="1084.2158">
			<stop  offset="0" style="stop-color:#201600"/>
			<stop  offset="0.4397" style="stop-color:#5F5D59"/>
			<stop  offset="0.5931" style="stop-color:#696764"/>
			<stop  offset="1" style="stop-color:#201600"/>
		</linearGradient>
		<rect x="351.521" y="1074.111" fill="url(#SVGID_2_)" stroke="#201600" stroke-miterlimit="10" width="226.107" height="20.209"/>
		<linearGradient id="SVGID_3_" gradientUnits="userSpaceOnUse" x1="351.5205" y1="687.7734" x2="577.6279" y2="687.7734">
			<stop  offset="0" style="stop-color:#201600"/>
			<stop  offset="0.4397" style="stop-color:#5F5D59"/>
			<stop  offset="0.5931" style="stop-color:#696764"/>
			<stop  offset="1" style="stop-color:#201600"/>
		</linearGradient>
		<rect x="351.521" y="678.276" fill="url(#SVGID_3_)" stroke="#201600" stroke-miterlimit="10" width="226.107" height="18.994"/>
	</g>
	<rect x="493.411" y="1047.492" fill="#6558A0" width="111.248" height="8.943"/>
	<rect x="491.088" y="715.616" fill="#E18C44" width="85.705" height="8.942"/>
	<g>
		<rect x="579.197" y="1047.175" fill="#979695" stroke="#6B6966" stroke-miterlimit="10" width="8.702" height="9.583"/>
		<rect x="575.999" y="1039.303" fill="#201600" stroke="#201600" stroke-miterlimit="10" width="3.198" height="25.325"/>
	</g>
	<g>
		<rect x="579.611" y="715.296" fill="#979695" stroke="#6B6966" stroke-miterlimit="10" width="8.701" height="9.584"/>
		<rect x="576.413" y="707.424" fill="#201600" stroke="#201600" stroke-miterlimit="10" width="3.198" height="25.328"/>
	</g>
	<line fill="#FFF343" stroke="#3EB5F1" stroke-miterlimit="10" x1="1128.878" y1="775.467" x2="1128.878" y2="834.572"/>
	<line fill="#FFF343" stroke="#3EB5F1" stroke-miterlimit="10" x1="1124.672" y1="775.234" x2="1124.672" y2="838.778"/>
	
		<line opacity="0.7" fill="#FFF343" stroke="#3EB5F1" stroke-miterlimit="10" x1="1120.464" y1="775.467" x2="1120.464" y2="840.883"/>
	
		<line opacity="0.7" fill="#FFF343" stroke="#3EB5F1" stroke-miterlimit="10" x1="1116.259" y1="775.467" x2="1116.259" y2="842.985"/>
	
		<line opacity="0.7" fill="#FFF343" stroke="#3EB5F1" stroke-miterlimit="10" x1="1112.052" y1="775.467" x2="1112.052" y2="845.088"/>
	
		<line opacity="0.5" fill="#FFF343" stroke="#3EB5F1" stroke-miterlimit="10" x1="1107.847" y1="775.234" x2="1107.847" y2="847.192"/>
	
		<line opacity="0.5" fill="#FFF343" stroke="#3EB5F1" stroke-miterlimit="10" x1="1103.64" y1="775.234" x2="1103.64" y2="847.192"/>
	
		<line opacity="0.5" fill="#FFF343" stroke="#3EB5F1" stroke-miterlimit="10" x1="1099.433" y1="775.234" x2="1099.433" y2="847.192"/>
	
		<line opacity="0.5" fill="#FFF343" stroke="#3EB5F1" stroke-miterlimit="10" x1="1095.228" y1="775.467" x2="1095.228" y2="847.192"/>
	
		<line opacity="0.7" fill="#FFF343" stroke="#3EB5F1" stroke-miterlimit="10" x1="1091.021" y1="775.467" x2="1091.021" y2="845.088"/>
	
		<line opacity="0.7" fill="#FFF343" stroke="#3EB5F1" stroke-miterlimit="10" x1="1086.815" y1="775.467" x2="1086.815" y2="842.985"/>
	
		<line opacity="0.7" fill="#FFF343" stroke="#3EB5F1" stroke-miterlimit="10" x1="1082.607" y1="775.467" x2="1082.607" y2="840.883"/>
	<line fill="#FFF343" stroke="#3EB5F1" stroke-miterlimit="10" x1="1078.401" y1="775.234" x2="1078.401" y2="838.778"/>
	<line fill="#FFF343" stroke="#3EB5F1" stroke-miterlimit="10" x1="1074.196" y1="775.467" x2="1074.196" y2="834.572"/>
	<rect x="1215.585" y="1019.711" fill="#E18C44" width="8.943" height="131.525"/>
	<linearGradient id="SVGID_4_" gradientUnits="userSpaceOnUse" x1="1163.0488" y1="676.1709" x2="1163.0488" y2="685.1133">
		<stop  offset="0.0165" style="stop-color:#C9C8C8"/>
		<stop  offset="0.1387" style="stop-color:#C9C8C8"/>
		<stop  offset="0.2897" style="stop-color:#B1B0AF"/>
		<stop  offset="0.4257" style="stop-color:#979695"/>
		<stop  offset="0.713" style="stop-color:#E2E2E2"/>
		<stop  offset="0.827" style="stop-color:#B5B5B4"/>
		<stop  offset="0.941" style="stop-color:#8E8D8B"/>
		<stop  offset="1" style="stop-color:#7F7E7C"/>
	</linearGradient>
	<rect x="1097.065" y="676.171" fill="url(#SVGID_4_)" width="131.967" height="8.942"/>
	<linearGradient id="SVGID_5_" gradientUnits="userSpaceOnUse" x1="1097.0654" y1="720.8008" x2="1106.0078" y2="720.8008">
		<stop  offset="0" style="stop-color:#7F7E7C"/>
		<stop  offset="0.059" style="stop-color:#8E8D8B"/>
		<stop  offset="0.173" style="stop-color:#B5B5B4"/>
		<stop  offset="0.287" style="stop-color:#E2E2E2"/>
		<stop  offset="0.5743" style="stop-color:#979695"/>
		<stop  offset="0.7103" style="stop-color:#B1B0AF"/>
		<stop  offset="0.8613" style="stop-color:#C9C8C8"/>
		<stop  offset="0.9835" style="stop-color:#C9C8C8"/>
	</linearGradient>
	<rect x="1097.065" y="676.171" fill="url(#SVGID_5_)" width="8.942" height="89.261"/>
	<linearGradient id="SVGID_6_" gradientUnits="userSpaceOnUse" x1="1101.5371" y1="775.4668" x2="1101.5371" y2="756.3604">
		<stop  offset="0.0325" style="stop-color:#6B6966"/>
		<stop  offset="0.1078" style="stop-color:#817F7D"/>
		<stop  offset="0.2397" style="stop-color:#AFAFAF"/>
		<stop  offset="0.5052" style="stop-color:#D2D2D2"/>
		<stop  offset="0.6606" style="stop-color:#E2E2E2"/>
		<stop  offset="0.781" style="stop-color:#EBEBEB"/>
		<stop  offset="0.8193" style="stop-color:#EFEFEF"/>
		<stop  offset="0.8961" style="stop-color:#EFEFEF"/>
		<stop  offset="1" style="stop-color:#EFEFEF"/>
	</linearGradient>
	<path fill="url(#SVGID_6_)" d="M1133.259,775.467v-0.003c0-10.55-14.202-19.104-31.722-19.104
		c-17.521,0-31.723,8.554-31.723,19.104v0.003H1133.259z"/>
	<linearGradient id="SVGID_7_" gradientUnits="userSpaceOnUse" x1="1229.0322" y1="839.002" x2="1237.9746" y2="839.002">
		<stop  offset="0" style="stop-color:#7F7E7C"/>
		<stop  offset="0.059" style="stop-color:#8E8D8B"/>
		<stop  offset="0.173" style="stop-color:#B5B5B4"/>
		<stop  offset="0.287" style="stop-color:#E2E2E2"/>
		<stop  offset="0.5743" style="stop-color:#979695"/>
		<stop  offset="0.7103" style="stop-color:#B1B0AF"/>
		<stop  offset="0.8613" style="stop-color:#C9C8C8"/>
		<stop  offset="0.9835" style="stop-color:#C9C8C8"/>
	</linearGradient>
	<rect x="1229.032" y="676.171" fill="url(#SVGID_7_)" width="8.942" height="325.661"/>
	<rect x="332.47" y="1042.711" fill="#979695" stroke="#6B6966" stroke-miterlimit="10" width="17.125" height="18.859"/>
	<rect x="349.587" y="1039.479" fill="#201600" stroke="#201600" stroke-miterlimit="10" width="3.199" height="25.326"/>
	<g>
		<rect x="353.858" y="1045.628" fill="#D4DE4E" width="101.623" height="3.855"/>
		<rect x="353.858" y="1054.917" fill="#D4DE4E" width="101.623" height="3.855"/>
		<rect x="451.624" y="1045.624" fill="#D4DE4E" width="3.856" height="13.146"/>
	</g>
	<line fill="#FFF343" stroke="#3EB5F1" stroke-miterlimit="10" x1="842.849" y1="775.467" x2="842.849" y2="834.572"/>
	<line fill="#FFF343" stroke="#3EB5F1" stroke-miterlimit="10" x1="838.642" y1="775.234" x2="838.642" y2="838.778"/>
	
		<line opacity="0.7" fill="#FFF343" stroke="#3EB5F1" stroke-miterlimit="10" x1="834.435" y1="775.467" x2="834.435" y2="840.883"/>
	
		<line opacity="0.7" fill="#FFF343" stroke="#3EB5F1" stroke-miterlimit="10" x1="830.229" y1="775.467" x2="830.229" y2="842.985"/>
	
		<line opacity="0.7" fill="#FFF343" stroke="#3EB5F1" stroke-miterlimit="10" x1="826.022" y1="775.467" x2="826.022" y2="845.088"/>
	
		<line opacity="0.5" fill="#FFF343" stroke="#3EB5F1" stroke-miterlimit="10" x1="821.816" y1="775.234" x2="821.816" y2="847.192"/>
	
		<line opacity="0.5" fill="#FFF343" stroke="#3EB5F1" stroke-miterlimit="10" x1="817.609" y1="775.234" x2="817.609" y2="847.192"/>
	
		<line opacity="0.5" fill="#FFF343" stroke="#3EB5F1" stroke-miterlimit="10" x1="813.403" y1="775.234" x2="813.403" y2="847.192"/>
	
		<line opacity="0.5" fill="#FFF343" stroke="#3EB5F1" stroke-miterlimit="10" x1="809.197" y1="775.467" x2="809.197" y2="847.192"/>
	
		<line opacity="0.7" fill="#FFF343" stroke="#3EB5F1" stroke-miterlimit="10" x1="804.991" y1="775.467" x2="804.991" y2="845.088"/>
	
		<line opacity="0.7" fill="#FFF343" stroke="#3EB5F1" stroke-miterlimit="10" x1="800.784" y1="775.467" x2="800.784" y2="842.985"/>
	
		<line opacity="0.7" fill="#FFF343" stroke="#3EB5F1" stroke-miterlimit="10" x1="796.577" y1="775.467" x2="796.577" y2="840.883"/>
	<line fill="#FFF343" stroke="#3EB5F1" stroke-miterlimit="10" x1="792.372" y1="775.234" x2="792.372" y2="838.778"/>
	<line fill="#FFF343" stroke="#3EB5F1" stroke-miterlimit="10" x1="788.167" y1="775.467" x2="788.167" y2="834.572"/>
	<rect x="929.556" y="1019.711" fill="#E18C44" width="8.942" height="133.348"/>
	<linearGradient id="SVGID_8_" gradientUnits="userSpaceOnUse" x1="877.0195" y1="676.1709" x2="877.0195" y2="685.1133">
		<stop  offset="0.0165" style="stop-color:#C9C8C8"/>
		<stop  offset="0.1387" style="stop-color:#C9C8C8"/>
		<stop  offset="0.2897" style="stop-color:#B1B0AF"/>
		<stop  offset="0.4257" style="stop-color:#979695"/>
		<stop  offset="0.713" style="stop-color:#E2E2E2"/>
		<stop  offset="0.827" style="stop-color:#B5B5B4"/>
		<stop  offset="0.941" style="stop-color:#8E8D8B"/>
		<stop  offset="1" style="stop-color:#7F7E7C"/>
	</linearGradient>
	<rect x="811.036" y="676.171" fill="url(#SVGID_8_)" width="131.967" height="8.942"/>
	<linearGradient id="SVGID_9_" gradientUnits="userSpaceOnUse" x1="811.0361" y1="720.8008" x2="819.9785" y2="720.8008">
		<stop  offset="0" style="stop-color:#7F7E7C"/>
		<stop  offset="0.059" style="stop-color:#8E8D8B"/>
		<stop  offset="0.173" style="stop-color:#B5B5B4"/>
		<stop  offset="0.287" style="stop-color:#E2E2E2"/>
		<stop  offset="0.5743" style="stop-color:#979695"/>
		<stop  offset="0.7103" style="stop-color:#B1B0AF"/>
		<stop  offset="0.8613" style="stop-color:#C9C8C8"/>
		<stop  offset="0.9835" style="stop-color:#C9C8C8"/>
	</linearGradient>
	<rect x="811.036" y="676.171" fill="url(#SVGID_9_)" width="8.942" height="89.261"/>
	<linearGradient id="SVGID_10_" gradientUnits="userSpaceOnUse" x1="815.5068" y1="775.4668" x2="815.5068" y2="756.3604">
		<stop  offset="0.0325" style="stop-color:#6B6966"/>
		<stop  offset="0.1078" style="stop-color:#817F7D"/>
		<stop  offset="0.2397" style="stop-color:#AFAFAF"/>
		<stop  offset="0.5052" style="stop-color:#D2D2D2"/>
		<stop  offset="0.6606" style="stop-color:#E2E2E2"/>
		<stop  offset="0.781" style="stop-color:#EBEBEB"/>
		<stop  offset="0.8193" style="stop-color:#EFEFEF"/>
		<stop  offset="0.8961" style="stop-color:#EFEFEF"/>
		<stop  offset="1" style="stop-color:#EFEFEF"/>
	</linearGradient>
	<path fill="url(#SVGID_10_)" d="M847.229,775.467v-0.003c0-10.55-14.203-19.104-31.722-19.104c-17.52,0-31.722,8.554-31.722,19.104
		v0.003H847.229z"/>
	<linearGradient id="SVGID_11_" gradientUnits="userSpaceOnUse" x1="943.0029" y1="839.002" x2="951.9453" y2="839.002">
		<stop  offset="0" style="stop-color:#7F7E7C"/>
		<stop  offset="0.059" style="stop-color:#8E8D8B"/>
		<stop  offset="0.173" style="stop-color:#B5B5B4"/>
		<stop  offset="0.287" style="stop-color:#E2E2E2"/>
		<stop  offset="0.5743" style="stop-color:#979695"/>
		<stop  offset="0.7103" style="stop-color:#B1B0AF"/>
		<stop  offset="0.8613" style="stop-color:#C9C8C8"/>
		<stop  offset="0.9835" style="stop-color:#C9C8C8"/>
	</linearGradient>
	<rect x="943.003" y="676.171" fill="url(#SVGID_11_)" width="8.942" height="325.661"/>
	<g>
		<rect x="126.127" y="1044.751" fill="#979695" stroke="#6B6966" stroke-miterlimit="10" width="16.068" height="14.788"/>
		<rect x="122.935" y="1040.609" fill="#48443E" width="5.063" height="23.067"/>
		
			<linearGradient id="SVGID_12_" gradientUnits="userSpaceOnUse" x1="62.3901" y1="-107.6011" x2="62.3901" y2="-110.9321" gradientTransform="matrix(-1 0 0 -1 178.9189 947.5352)">
			<stop  offset="0.0325" style="stop-color:#979695"/>
			<stop  offset="0.1837" style="stop-color:#B3B3B2"/>
			<stop  offset="0.3923" style="stop-color:#D5D5D5"/>
			<stop  offset="0.5049" style="stop-color:#E2E2E2"/>
			<stop  offset="0.6063" style="stop-color:#D9D9D9"/>
			<stop  offset="0.7716" style="stop-color:#C2C1C1"/>
			<stop  offset="0.9793" style="stop-color:#9B9A99"/>
			<stop  offset="1" style="stop-color:#979695"/>
		</linearGradient>
		<rect x="110.123" y="1055.136" fill="url(#SVGID_12_)" width="12.812" height="3.331"/>
		
			<linearGradient id="SVGID_13_" gradientUnits="userSpaceOnUse" x1="62.3901" y1="-98.3013" x2="62.3901" y2="-101.6323" gradientTransform="matrix(-1 0 0 -1 178.9189 947.5352)">
			<stop  offset="0.0325" style="stop-color:#979695"/>
			<stop  offset="0.1837" style="stop-color:#B3B3B2"/>
			<stop  offset="0.3923" style="stop-color:#D5D5D5"/>
			<stop  offset="0.5049" style="stop-color:#E2E2E2"/>
			<stop  offset="0.6063" style="stop-color:#D9D9D9"/>
			<stop  offset="0.7716" style="stop-color:#C2C1C1"/>
			<stop  offset="0.9793" style="stop-color:#9B9A99"/>
			<stop  offset="1" style="stop-color:#979695"/>
		</linearGradient>
		<rect x="110.123" y="1045.836" fill="url(#SVGID_13_)" width="12.812" height="3.331"/>
	</g>
	<g>
		<path fill="#D24A43" d="M78.828,1025.084c-0.036-4.791,2.074-6.686,4.97-6.686c1.752,0,2.967,0.572,5.005,1.716
			c1.573,0.858,2.539,1.395,3.396,1.395s1.359-0.751,1.466-2.896h3.396c0.214,5.112-2.038,6.757-4.755,6.757
			c-1.716,0-3.075-0.644-5.005-1.716c-1.573-0.93-2.538-1.502-3.396-1.502c-0.894,0-1.537,0.607-1.68,2.932H78.828z"/>
		<path fill="#D24A43" d="M100.101,1031.948v-3.289l3.003-2.717c5.077-4.541,7.543-7.15,7.615-9.868
			c0-1.895-1.144-3.396-3.825-3.396c-2.002,0-3.754,1.001-4.97,1.93l-1.537-3.896c1.752-1.323,4.469-2.396,7.615-2.396
			c5.255,0,8.151,3.075,8.151,7.294c0,3.896-2.824,7.007-6.185,10.01l-2.146,1.788v0.071h8.759v4.469H100.101z"/>
		<path fill="#D24A43" d="M120.91,1026.621c0.965,0.501,3.182,1.431,5.398,1.431c2.824,0,4.254-1.359,4.254-3.11
			c0-2.288-2.288-3.325-4.684-3.325h-2.216v-3.897h2.109c1.823-0.035,4.147-0.715,4.147-2.681c0-1.395-1.144-2.432-3.432-2.432
			c-1.895,0-3.897,0.822-4.862,1.395l-1.108-3.933c1.394-0.894,4.183-1.752,7.186-1.752c4.969,0,7.722,2.61,7.722,5.792
			c0,2.467-1.395,4.397-4.254,5.398v0.071c2.789,0.501,5.041,2.61,5.041,5.648c0,4.112-3.611,7.115-9.51,7.115
			c-3.003,0-5.542-0.787-6.9-1.645L120.91,1026.621z"/>
		<path fill="#D24A43" d="M156.948,1020.222c0,7.187-2.896,12.12-8.831,12.12c-6.006,0-8.652-5.398-8.688-11.977
			c0-6.722,2.86-12.049,8.866-12.049C154.517,1008.316,156.948,1013.858,156.948,1020.222z M144.9,1020.365
			c-0.036,5.326,1.251,7.865,3.361,7.865s3.253-2.646,3.253-7.938c0-5.147-1.108-7.865-3.289-7.865
			C146.223,1012.428,144.864,1014.967,144.9,1020.365z"/>
		<path fill="#D24A43" d="M166.173,1031.948l-7.722-24.097h5.971l2.931,10.189c0.822,2.86,1.573,5.613,2.146,8.616h0.107
			c0.608-2.896,1.359-5.756,2.181-8.509l3.074-10.297h5.792l-8.116,24.097H166.173z"/>
	</g>
	<rect x="1242.61" y="1019.711" fill="#6558A0" width="8.942" height="157.98"/>
	<rect x="956.581" y="1019.711" fill="#6558A0" width="8.942" height="157.98"/>
	<rect x="627.136" y="1146.324" fill="#E18C44" width="772.682" height="9.822"/>
	<linearGradient id="SVGID_14_" gradientUnits="userSpaceOnUse" x1="1233.5039" y1="1001.832" x2="1233.5039" y2="1037.5869">
		<stop  offset="0" style="stop-color:#D3D2D3"/>
		<stop  offset="1" style="stop-color:#6D6B68"/>
	</linearGradient>
	<rect x="1198.802" y="1001.832" fill="url(#SVGID_14_)" width="69.403" height="35.755"/>
	<linearGradient id="SVGID_15_" gradientUnits="userSpaceOnUse" x1="947.4746" y1="1001.832" x2="947.4746" y2="1037.5869">
		<stop  offset="0" style="stop-color:#D3D2D3"/>
		<stop  offset="1" style="stop-color:#6D6B68"/>
	</linearGradient>
	<rect x="912.772" y="1001.832" fill="url(#SVGID_15_)" width="69.403" height="35.755"/>
	<g>
		<g>
			<path fill="#3EB5F1" d="M836.708,641.016h-5.454L816.881,618.9c-0.363-0.56-0.666-1.139-0.901-1.742h-0.126
				c0.111,0.645,0.168,2.025,0.168,4.138v19.72h-4.826v-30.089h5.812l13.889,21.591c0.588,0.896,0.965,1.512,1.134,1.848h0.082
				c-0.14-0.797-0.209-2.148-0.209-4.051v-19.388h4.805V641.016z"/>
			<path fill="#3EB5F1" d="M861.8,631.597h-14.643c0.055,1.984,0.666,3.518,1.834,4.593c1.169,1.076,2.771,1.614,4.816,1.614
				c2.294,0,4.399-0.686,6.315-2.053v3.922c-1.961,1.231-4.549,1.846-7.764,1.846c-3.161,0-5.641-0.975-7.438-2.926
				c-1.797-1.952-2.697-4.695-2.697-8.236c0-3.345,0.99-6.066,2.971-8.171c1.98-2.105,4.437-3.157,7.374-3.157
				c2.936,0,5.21,0.943,6.818,2.832c1.607,1.888,2.412,4.512,2.412,7.868V631.597z M857.101,628.154
				c-0.014-1.749-0.427-3.109-1.237-4.078c-0.812-0.974-1.932-1.459-3.356-1.459c-1.4,0-2.584,0.51-3.558,1.529
				c-0.973,1.021-1.569,2.357-1.792,4.008H857.101z"/>
			<path fill="#3EB5F1" d="M895.326,619.532l-6.334,21.483h-5.101l-3.899-14.562c-0.156-0.559-0.253-1.187-0.296-1.885h-0.081
				c-0.029,0.472-0.157,1.088-0.379,1.845l-4.239,14.602h-4.993l-6.316-21.483h5.037l3.902,15.483
				c0.127,0.459,0.209,1.076,0.25,1.844h0.148c0.04-0.584,0.153-1.216,0.336-1.886l4.343-15.441h4.572l3.86,15.544
				c0.129,0.493,0.218,1.104,0.273,1.849h0.146c0.029-0.518,0.135-1.134,0.315-1.849l3.818-15.544H895.326z"/>
			<path fill="#3EB5F1" d="M928.184,641.016h-16.89v-30.089h16.219v4.239h-11.225v8.519h10.343v4.22h-10.343v8.894h11.896V641.016z"
				/>
			<path fill="#3EB5F1" d="M952.122,641.016h-4.868V628.91c0-4.013-1.42-6.021-4.26-6.021c-1.482,0-2.706,0.555-3.669,1.668
				c-0.966,1.113-1.451,2.514-1.451,4.206v12.253h-4.888v-21.483h4.888v3.565h0.086c1.606-2.714,3.931-4.069,6.966-4.069
				c2.334,0,4.117,0.76,5.349,2.274c1.233,1.52,1.848,3.71,1.848,6.581V641.016z"/>
			<path fill="#3EB5F1" d="M976.249,631.597h-14.645c0.058,1.984,0.667,3.518,1.837,4.593c1.165,1.076,2.772,1.614,4.813,1.614
				c2.295,0,4.399-0.686,6.317-2.053v3.922c-1.96,1.231-4.547,1.846-7.764,1.846c-3.163,0-5.643-0.975-7.438-2.926
				c-1.798-1.952-2.695-4.695-2.695-8.236c0-3.345,0.989-6.066,2.968-8.171c1.98-2.105,4.439-3.157,7.375-3.157
				c2.938,0,5.21,0.943,6.82,2.832c1.605,1.888,2.411,4.512,2.411,7.868V631.597z M971.549,628.154
				c-0.012-1.749-0.427-3.109-1.235-4.078c-0.813-0.974-1.931-1.459-3.359-1.459c-1.397,0-2.585,0.51-3.555,1.529
				c-0.974,1.021-1.571,2.357-1.795,4.008H971.549z"/>
			<path fill="#3EB5F1" d="M993.349,624.171c-0.587-0.465-1.433-0.694-2.539-0.694c-1.44,0-2.644,0.648-3.608,1.951
				c-0.963,1.303-1.446,3.067-1.446,5.306v10.282h-4.87v-21.483h4.87v4.424h0.083c0.475-1.506,1.205-2.687,2.191-3.532
				c0.986-0.847,2.089-1.27,3.307-1.27c0.879,0,1.553,0.132,2.013,0.398V624.171z"/>
			<path fill="#3EB5F1" d="M1015.966,639.296c0,7.887-3.965,11.833-11.896,11.833c-2.796,0-5.239-0.469-7.323-1.405v-4.447
				c2.35,1.339,4.581,2.012,6.693,2.012c5.106,0,7.66-2.509,7.66-7.533v-2.35h-0.085c-1.609,2.744-4.028,4.113-7.261,4.113
				c-2.614,0-4.724-0.955-6.326-2.864c-1.6-1.91-2.403-4.47-2.403-7.689c0-3.652,0.862-6.553,2.584-8.705
				c1.72-2.155,4.084-3.231,7.091-3.231c2.838,0,4.946,1.161,6.315,3.482h0.085v-2.979h4.866V639.296z M1011.14,631.174v-2.788
				c0-1.513-0.499-2.804-1.499-3.869c-1.002-1.073-2.249-1.607-3.747-1.607c-1.845,0-3.29,0.682-4.331,2.046
				c-1.043,1.364-1.564,3.27-1.564,5.718c0,2.111,0.501,3.801,1.499,5.064c1.001,1.266,2.327,1.902,3.978,1.902
				c1.681,0,3.043-0.608,4.092-1.815C1010.616,634.612,1011.14,633.064,1011.14,631.174z"/>
			<path fill="#3EB5F1" d="M1040.911,619.532l-9.693,24.922c-2.012,4.449-4.839,6.675-8.474,6.675c-1.022,0-1.875-0.09-2.563-0.274
				v-4.051c0.772,0.256,1.47,0.379,2.1,0.379c1.819,0,3.175-0.896,4.071-2.684l1.446-3.523l-8.538-21.443h5.392l5.121,15.609
				c0.054,0.194,0.181,0.71,0.377,1.553h0.103c0.073-0.323,0.198-0.825,0.379-1.511l5.373-15.651H1040.911z"/>
			<path fill="#3EB5F1" d="M1077.481,639.755c-2.265,1.175-5.083,1.764-8.455,1.764c-4.364,0-7.86-1.378-10.492-4.134
				c-2.628-2.757-3.942-6.371-3.942-10.844c0-4.814,1.479-8.701,4.436-11.667c2.963-2.965,6.695-4.448,11.216-4.448
				c2.909,0,5.322,0.41,7.238,1.237v4.952c-2.027-1.203-4.266-1.802-6.715-1.802c-3.259,0-5.898,1.038-7.919,3.126
				c-2.021,2.081-3.031,4.867-3.031,8.347c0,3.313,0.942,5.956,2.829,7.924c1.89,1.964,4.373,2.945,7.45,2.945
				c2.84,0,5.301-0.67,7.386-2.014V639.755z"/>
			<path fill="#3EB5F1" d="M1092.166,641.519c-3.316,0-5.962-1.004-7.941-3.013c-1.98-2.005-2.965-4.666-2.965-7.98
				c0-3.611,1.03-6.425,3.092-8.454c2.062-2.03,4.843-3.043,8.341-3.043c3.356,0,5.971,0.985,7.845,2.958
				c1.876,1.97,2.813,4.705,2.813,8.201c0,3.43-1.011,6.175-3.034,8.236C1098.298,640.486,1095.578,641.519,1092.166,641.519z
				 M1092.398,622.909c-1.903,0-3.408,0.666-4.511,1.992c-1.105,1.331-1.658,3.163-1.658,5.497c0,2.254,0.559,4.025,1.681,5.318
				c1.116,1.293,2.61,1.943,4.488,1.943c1.915,0,3.385-0.637,4.416-1.909c1.026-1.274,1.541-3.085,1.541-5.437
				c0-2.361-0.515-4.189-1.541-5.475C1095.783,623.555,1094.313,622.909,1092.398,622.909z"/>
			<path fill="#3EB5F1" d="M1140.42,641.016h-4.866V629.31c0-2.251-0.32-3.882-0.956-4.889c-0.637-1.007-1.708-1.512-3.221-1.512
				c-1.271,0-2.352,0.637-3.241,1.909c-0.888,1.275-1.331,2.799-1.331,4.573v11.624h-4.888V628.91c0-4-1.414-6.001-4.239-6.001
				c-1.315,0-2.396,0.601-3.24,1.804c-0.847,1.203-1.271,2.766-1.271,4.679v11.624h-4.867v-21.483h4.867v3.397h0.085
				c1.551-2.6,3.81-3.901,6.776-3.901c1.481,0,2.781,0.41,3.895,1.228c1.109,0.816,1.868,1.89,2.274,3.221
				c1.593-2.967,3.972-4.448,7.133-4.448c4.727,0,7.09,2.916,7.09,8.748V641.016z"/>
			<path fill="#3EB5F1" d="M1151.312,637.849h-0.084v13.051h-4.869v-31.367h4.869v3.775h0.084c1.662-2.854,4.097-4.279,7.299-4.279
				c2.729,0,4.854,0.956,6.379,2.874c1.523,1.915,2.286,4.491,2.286,7.718c0,3.583-0.861,6.451-2.579,8.603
				c-1.721,2.157-4.072,3.232-7.049,3.232C1154.907,641.455,1152.793,640.252,1151.312,637.849z M1151.187,629.371v2.665
				c0,1.565,0.499,2.896,1.498,3.985c0.999,1.092,2.271,1.639,3.807,1.639c1.807,0,3.222-0.707,4.253-2.111
				c1.025-1.404,1.539-3.368,1.539-5.882c0-2.112-0.479-3.767-1.435-4.963c-0.962-1.194-2.258-1.795-3.895-1.795
				c-1.735,0-3.13,0.616-4.186,1.844C1151.713,625.986,1151.187,627.527,1151.187,629.371z"/>
			<path fill="#3EB5F1" d="M1188.238,641.016h-4.723v-3.355h-0.083c-1.483,2.571-3.658,3.858-6.525,3.858
				c-2.111,0-3.768-0.572-4.961-1.719c-1.194-1.149-1.795-2.666-1.795-4.555c0-4.054,2.336-6.421,7.009-7.091l6.376-0.902
				c0-3.061-1.454-4.594-4.364-4.594c-2.558,0-4.865,0.879-6.921,2.643v-4.256c2.267-1.344,4.88-2.017,7.847-2.017
				c5.426,0,8.141,2.674,8.141,8.013V641.016z M1183.536,630.463l-4.509,0.629c-1.399,0.181-2.453,0.522-3.157,1.019
				c-0.706,0.497-1.06,1.364-1.06,2.612c0,0.909,0.324,1.651,0.975,2.23c0.65,0.584,1.523,0.875,2.612,0.875
				c1.481,0,2.709-0.522,3.682-1.564c0.972-1.043,1.457-2.354,1.457-3.935V630.463z"/>
			<path fill="#3EB5F1" d="M1213.311,641.016h-4.868V628.91c0-4.013-1.417-6.021-4.261-6.021c-1.483,0-2.706,0.555-3.668,1.668
				c-0.968,1.113-1.449,2.514-1.449,4.206v12.253h-4.889v-21.483h4.889v3.565h0.083c1.608-2.714,3.93-4.069,6.967-4.069
				c2.336,0,4.12,0.76,5.352,2.274c1.228,1.52,1.845,3.71,1.845,6.581V641.016z"/>
			<path fill="#3EB5F1" d="M1237.857,619.532l-9.693,24.922c-2.017,4.449-4.84,6.675-8.479,6.675c-1.02,0-1.874-0.09-2.559-0.274
				v-4.051c0.771,0.256,1.469,0.379,2.099,0.379c1.819,0,3.176-0.896,4.069-2.684l1.447-3.523l-8.541-21.443h5.394l5.122,15.609
				c0.054,0.194,0.182,0.71,0.379,1.553h0.103c0.069-0.323,0.197-0.825,0.379-1.511l5.372-15.651H1237.857z"/>
		</g>
		<g>
			<g>
				<path fill="#4D69AD" d="M861.557,562.451c0,1.64,0.017,3.119,0.056,4.432l-36.702-55.307h-13.488v73.147h11.684v-52.143
					c0-1.241-0.008-2.374-0.026-3.399l37.286,55.542h12.875v-73.147h-11.684V562.451z"/>
				<polygon fill="#4D69AD" points="900.844,522.154 929.263,522.154 929.263,511.576 889.161,511.576 889.161,584.724 
					930.887,584.724 930.887,574.147 900.844,574.147 				"/>
				<path fill="#4D69AD" d="M991.866,562.451c0,1.64,0.016,3.119,0.055,4.432l-36.7-55.307h-13.489v73.147h11.685v-52.143
					c0-1.241-0.009-2.374-0.026-3.399l37.285,55.542h12.876v-73.147h-11.685V562.451z"/>
				<path fill="#4D69AD" d="M1053.425,510.406c-11.136,0-20.473,3.634-27.748,10.801c-7.282,7.175-10.976,16.682-10.976,28.26
					c0,10.791,3.29,19.647,9.779,26.334c6.508,6.697,15.253,10.095,26.001,10.095c8.231,0,15.234-1.438,20.811-4.273l0.863-0.439
					v-11.679l-2.377,1.39c-5.073,2.965-11.19,4.468-18.182,4.468c-7.501,0-13.377-2.32-17.964-7.101
					c-4.54-4.732-6.843-11.22-6.843-19.282c0-8.514,2.473-15.385,7.345-20.423c4.928-5.096,11.206-7.572,19.188-7.572
					c5.996,0,11.551,1.351,16.505,4.009l2.328,1.251v-12.424l-0.962-0.407C1066.485,511.416,1060.506,510.406,1053.425,510.406z"/>
				<path fill="#4D69AD" d="M1114.567,510.406c-11.29,0-20.365,3.548-26.977,10.548c-6.582,6.978-9.919,16.406-9.919,28.024
					c0,10.844,3.278,19.8,9.747,26.614c6.487,6.834,15.213,10.303,25.934,10.303c10.956,0,19.845-3.518,26.415-10.451
					c6.551-6.909,9.871-16.39,9.871-28.172c0-10.878-3.241-19.828-9.638-26.609C1133.577,513.855,1125.022,510.406,1114.567,510.406
					z M1113.353,575.361c-7.069,0-12.632-2.401-17.011-7.348c-4.364-4.929-6.577-11.579-6.577-19.765
					c0-8.183,2.271-14.853,6.748-19.836c4.497-4.999,10.201-7.43,17.448-7.43c7.443,0,13.099,2.301,17.287,7.033
					c4.181,4.724,6.303,11.578,6.303,20.377c0,8.561-2.181,15.278-6.485,19.966C1126.737,573.074,1120.943,575.361,1113.353,575.361
					z"/>
				<path fill="#4D69AD" d="M1224.898,511.576c0,0-24.523,52.49-25.37,54.621c-0.559-1.4-24.878-54.621-24.878-54.621h-13.86v73.147
					h11.382v-48.435c0-1.299-0.006-2.527-0.016-3.686l24.22,52.12h6.18l24.006-51.924c-0.037,1.201-0.058,2.335-0.058,3.395v48.529
					h11.633v-73.147H1224.898z"/>
			</g>
			<rect x="908.198" y="542.273" fill="#4D69AD" width="13.694" height="10.532"/>
		</g>
	</g>
	<rect y="1173.683" fill="#6558A0" width="1399.817" height="8.942"/>
	<rect x="250.905" y="436.782" fill="#979695" width="3.857" height="588.22"/>
	<rect x="220" y="1025" fill="#6CA9E0" stroke="#4D5B9D" stroke-miterlimit="10" width="66" height="54"/>
	<g>
		<g>
			<rect x="244.433" y="51.195" fill="#E6E6E6" width="222.906" height="383.164"/>
			<g>
				<path fill="#2E3192" d="M462.69,97.952c0,5.762-4.671,10.434-10.434,10.434h-31.272c-5.763,0-10.434-4.672-10.434-10.434V66.68
					c0-5.762,4.671-10.434,10.434-10.434h31.272c5.763,0,10.434,4.671,10.434,10.434V97.952z"/>
				<rect x="436.016" y="56.247" fill="#B3B3B3" width="1.212" height="52.14"/>
				<rect x="421.666" y="56.247" fill="#B3B3B3" width="1.213" height="52.14"/>
				<rect x="449.959" y="56.247" fill="#B3B3B3" width="1.212" height="52.14"/>
			</g>
			<g>
				<path fill="#2E3192" d="M408.935,97.903c0,5.763-4.747,10.483-10.508,10.483h-31.3c-5.762,0-10.331-4.72-10.331-10.483V66.604
					c0-5.762,4.569-10.358,10.331-10.358h31.3c5.761,0,10.508,4.596,10.508,10.358V97.903z"/>
				<rect x="382.258" y="56.247" fill="#B3B3B3" width="1.212" height="52.14"/>
				<rect x="367.91" y="56.247" fill="#B3B3B3" width="1.213" height="52.14"/>
				<rect x="396.202" y="56.247" fill="#B3B3B3" width="1.213" height="52.14"/>
			</g>
			<g>
				<path fill="#2E3192" d="M355.179,97.903c0,5.763-4.679,10.483-10.441,10.483h-31.3c-5.762,0-10.398-4.72-10.398-10.483V66.604
					c0-5.762,4.636-10.358,10.398-10.358h31.3c5.763,0,10.441,4.596,10.441,10.358V97.903z"/>
				<rect x="328.502" y="56.247" fill="#B3B3B3" width="1.214" height="52.14"/>
				<rect x="314.559" y="56.247" fill="#B3B3B3" width="0.809" height="52.14"/>
				<rect x="342.447" y="56.247" fill="#B3B3B3" width="1.213" height="52.14"/>
			</g>
			<g>
				<path fill="#2E3192" d="M301.422,97.903c0,5.763-4.612,10.483-10.374,10.483h-31.3c-5.762,0-10.465-4.72-10.465-10.483V66.604
					c0-5.762,4.703-10.358,10.465-10.358h31.3c5.762,0,10.374,4.596,10.374,10.358V97.903z"/>
				<rect x="274.746" y="56.247" fill="#B3B3B3" width="1.213" height="52.14"/>
				<rect x="260.803" y="56.247" fill="#B3B3B3" width="1.212" height="52.14"/>
				<rect x="289.095" y="56.247" fill="#B3B3B3" width="0.809" height="52.14"/>
			</g>
			<g>
				<path fill="#2E3192" d="M462.69,151.647c0,5.762-4.688,10.494-10.452,10.494h-31.343c-5.761,0-10.345-4.732-10.345-10.494
					v-31.342c0-5.762,4.584-10.505,10.345-10.505h31.343c5.764,0,10.452,4.743,10.452,10.505V151.647z"/>
				<rect x="436.016" y="109.8" fill="#B3B3B3" width="1.212" height="52.341"/>
				<rect x="421.666" y="109.8" fill="#B3B3B3" width="1.213" height="52.341"/>
				<rect x="449.959" y="109.8" fill="#B3B3B3" width="1.212" height="52.341"/>
			</g>
			<g>
				<path fill="#2E3192" d="M408.935,151.592c0,5.762-4.747,10.55-10.508,10.55h-31.3c-5.762,0-10.331-4.788-10.331-10.55v-31.298
					c0-5.762,4.569-10.493,10.331-10.493h31.3c5.761,0,10.508,4.731,10.508,10.493V151.592z"/>
				<rect x="382.258" y="109.8" fill="#B3B3B3" width="1.212" height="52.341"/>
				<rect x="367.91" y="109.8" fill="#B3B3B3" width="1.213" height="52.341"/>
				<rect x="396.202" y="109.8" fill="#B3B3B3" width="1.213" height="52.341"/>
			</g>
			<g>
				<path fill="#2E3192" d="M355.179,151.592c0,5.762-4.679,10.55-10.441,10.55h-31.3c-5.762,0-10.398-4.788-10.398-10.55v-31.298
					c0-5.762,4.636-10.493,10.398-10.493h31.3c5.763,0,10.441,4.731,10.441,10.493V151.592z"/>
				<rect x="328.502" y="109.8" fill="#B3B3B3" width="1.214" height="52.341"/>
				<rect x="314.559" y="109.8" fill="#B3B3B3" width="0.809" height="52.341"/>
				<rect x="342.447" y="109.8" fill="#B3B3B3" width="1.213" height="52.341"/>
			</g>
			<g>
				<path fill="#2E3192" d="M301.422,151.592c0,5.762-4.612,10.55-10.374,10.55h-31.3c-5.762,0-10.465-4.788-10.465-10.55v-31.298
					c0-5.762,4.703-10.493,10.465-10.493h31.3c5.762,0,10.374,4.731,10.374,10.493V151.592z"/>
				<rect x="274.746" y="109.8" fill="#B3B3B3" width="1.213" height="52.341"/>
				<rect x="260.803" y="109.8" fill="#B3B3B3" width="1.212" height="52.341"/>
				<rect x="289.095" y="109.8" fill="#B3B3B3" width="0.809" height="52.341"/>
			</g>
			<g>
				<path fill="#2E3192" d="M462.69,205.374c0,5.762-4.688,10.523-10.452,10.523h-31.343c-5.761,0-10.345-4.761-10.345-10.523
					v-31.342c0-5.762,4.584-10.476,10.345-10.476h31.343c5.764,0,10.452,4.713,10.452,10.476V205.374z"/>
				<rect x="436.016" y="163.557" fill="#B3B3B3" width="1.212" height="52.341"/>
				<rect x="421.666" y="163.557" fill="#B3B3B3" width="1.213" height="52.341"/>
				<rect x="449.959" y="163.557" fill="#B3B3B3" width="1.212" height="52.341"/>
			</g>
			<g>
				<path fill="#2E3192" d="M408.935,205.281c0,5.762-4.747,10.616-10.508,10.616h-31.3c-5.762,0-10.331-4.854-10.331-10.616
					v-31.299c0-5.763,4.569-10.426,10.331-10.426h31.3c5.761,0,10.508,4.663,10.508,10.426V205.281z"/>
				<rect x="382.258" y="163.557" fill="#B3B3B3" width="1.212" height="52.341"/>
				<rect x="367.91" y="163.557" fill="#B3B3B3" width="1.213" height="52.341"/>
				<rect x="396.202" y="163.557" fill="#B3B3B3" width="1.213" height="52.341"/>
			</g>
			<g>
				<path fill="#2E3192" d="M355.179,205.281c0,5.762-4.679,10.616-10.441,10.616h-31.3c-5.762,0-10.398-4.854-10.398-10.616
					v-31.299c0-5.763,4.636-10.426,10.398-10.426h31.3c5.763,0,10.441,4.663,10.441,10.426V205.281z"/>
				<rect x="328.502" y="163.557" fill="#B3B3B3" width="1.214" height="52.341"/>
				<rect x="314.559" y="163.557" fill="#B3B3B3" width="0.809" height="52.341"/>
				<rect x="342.447" y="163.557" fill="#B3B3B3" width="1.213" height="52.341"/>
			</g>
			<g>
				<path fill="#2E3192" d="M301.422,205.281c0,5.762-4.612,10.616-10.374,10.616h-31.3c-5.762,0-10.465-4.854-10.465-10.616
					v-31.299c0-5.763,4.703-10.426,10.465-10.426h31.3c5.762,0,10.374,4.663,10.374,10.426V205.281z"/>
				<rect x="274.746" y="163.557" fill="#B3B3B3" width="1.213" height="52.341"/>
				<rect x="260.803" y="163.557" fill="#B3B3B3" width="1.212" height="52.341"/>
				<rect x="289.095" y="163.557" fill="#B3B3B3" width="0.809" height="52.341"/>
			</g>
			<g>
				<path fill="#2E3192" d="M462.69,259.019c0,5.763-4.671,10.434-10.434,10.434h-31.272c-5.763,0-10.434-4.671-10.434-10.434
					v-31.272c0-5.762,4.671-10.434,10.434-10.434h31.272c5.763,0,10.434,4.671,10.434,10.434V259.019z"/>
				<rect x="436.016" y="217.312" fill="#B3B3B3" width="1.212" height="52.14"/>
				<rect x="421.666" y="217.312" fill="#B3B3B3" width="1.213" height="52.14"/>
				<rect x="449.959" y="217.312" fill="#B3B3B3" width="1.212" height="52.14"/>
			</g>
			<g>
				<path fill="#2E3192" d="M408.935,258.97c0,5.763-4.747,10.482-10.508,10.482h-31.3c-5.762,0-10.331-4.72-10.331-10.482v-31.299
					c0-5.762,4.569-10.358,10.331-10.358h31.3c5.761,0,10.508,4.597,10.508,10.358V258.97z"/>
				<rect x="382.258" y="217.312" fill="#B3B3B3" width="1.212" height="52.14"/>
				<rect x="367.91" y="217.312" fill="#B3B3B3" width="1.213" height="52.14"/>
				<rect x="396.202" y="217.312" fill="#B3B3B3" width="1.213" height="52.14"/>
			</g>
			<g>
				<path fill="#2E3192" d="M355.179,258.97c0,5.763-4.679,10.482-10.441,10.482h-31.3c-5.762,0-10.398-4.72-10.398-10.482v-31.299
					c0-5.762,4.636-10.358,10.398-10.358h31.3c5.763,0,10.441,4.597,10.441,10.358V258.97z"/>
				<rect x="328.502" y="217.312" fill="#B3B3B3" width="1.214" height="52.14"/>
				<rect x="314.559" y="217.312" fill="#B3B3B3" width="0.809" height="52.14"/>
				<rect x="342.447" y="217.312" fill="#B3B3B3" width="1.213" height="52.14"/>
			</g>
			<g>
				<path fill="#2E3192" d="M301.422,258.97c0,5.763-4.612,10.482-10.374,10.482h-31.3c-5.762,0-10.465-4.72-10.465-10.482v-31.299
					c0-5.762,4.703-10.358,10.465-10.358h31.3c5.762,0,10.374,4.597,10.374,10.358V258.97z"/>
				<rect x="274.746" y="217.312" fill="#B3B3B3" width="1.213" height="52.14"/>
				<rect x="260.803" y="217.312" fill="#B3B3B3" width="1.212" height="52.14"/>
				<rect x="289.095" y="217.312" fill="#B3B3B3" width="0.809" height="52.14"/>
			</g>
			<g>
				<path fill="#2E3192" d="M462.69,312.773c0,5.764-4.671,10.434-10.434,10.434h-31.272c-5.763,0-10.434-4.67-10.434-10.434
					v-31.272c0-5.761,4.671-10.433,10.434-10.433h31.272c5.763,0,10.434,4.672,10.434,10.433V312.773z"/>
				<rect x="436.016" y="271.068" fill="#B3B3B3" width="1.212" height="51.938"/>
				<rect x="421.666" y="271.068" fill="#B3B3B3" width="1.213" height="51.938"/>
				<rect x="449.959" y="271.068" fill="#B3B3B3" width="1.212" height="51.938"/>
			</g>
			<g>
				<path fill="#2E3192" d="M408.935,312.658c0,5.762-4.747,10.348-10.508,10.348h-31.3c-5.762,0-10.331-4.586-10.331-10.348V281.36
					c0-5.762,4.569-10.292,10.331-10.292h31.3c5.761,0,10.508,4.53,10.508,10.292V312.658z"/>
				<rect x="382.258" y="271.068" fill="#B3B3B3" width="1.212" height="51.938"/>
				<rect x="367.91" y="271.068" fill="#B3B3B3" width="1.213" height="51.938"/>
				<rect x="396.202" y="271.068" fill="#B3B3B3" width="1.213" height="51.938"/>
			</g>
			<g>
				<path fill="#2E3192" d="M355.179,312.658c0,5.762-4.679,10.348-10.441,10.348h-31.3c-5.762,0-10.398-4.586-10.398-10.348V281.36
					c0-5.762,4.636-10.292,10.398-10.292h31.3c5.763,0,10.441,4.53,10.441,10.292V312.658z"/>
				<rect x="328.502" y="271.068" fill="#B3B3B3" width="1.214" height="51.938"/>
				<rect x="314.559" y="271.068" fill="#B3B3B3" width="0.809" height="51.938"/>
				<rect x="342.447" y="271.068" fill="#B3B3B3" width="1.213" height="51.938"/>
			</g>
			<g>
				<path fill="#2E3192" d="M301.422,312.658c0,5.762-4.612,10.348-10.374,10.348h-31.3c-5.762,0-10.465-4.586-10.465-10.348V281.36
					c0-5.762,4.703-10.292,10.465-10.292h31.3c5.762,0,10.374,4.53,10.374,10.292V312.658z"/>
				<rect x="274.746" y="271.068" fill="#B3B3B3" width="1.213" height="51.938"/>
				<rect x="260.803" y="271.068" fill="#B3B3B3" width="1.212" height="51.938"/>
				<rect x="289.095" y="271.068" fill="#B3B3B3" width="0.809" height="51.938"/>
			</g>
			<g>
				<path fill="#2E3192" d="M462.69,366.127c0,5.762-4.671,10.433-10.434,10.433h-31.272c-5.763,0-10.434-4.671-10.434-10.433
					v-31.273c0-5.763,4.671-10.433,10.434-10.433h31.272c5.763,0,10.434,4.67,10.434,10.433V366.127z"/>
				<rect x="436.016" y="324.421" fill="#B3B3B3" width="1.212" height="52.34"/>
				<rect x="421.666" y="324.421" fill="#B3B3B3" width="1.213" height="52.34"/>
				<rect x="449.959" y="324.421" fill="#B3B3B3" width="1.212" height="52.34"/>
			</g>
			<g>
				<path fill="#2E3192" d="M408.935,366.348c0,5.762-4.747,10.413-10.508,10.413h-31.3c-5.762,0-10.331-4.651-10.331-10.413V335.05
					c0-5.764,4.569-10.629,10.331-10.629h31.3c5.761,0,10.508,4.865,10.508,10.629V366.348z"/>
				<rect x="382.258" y="324.421" fill="#B3B3B3" width="1.212" height="52.34"/>
				<rect x="367.91" y="324.421" fill="#B3B3B3" width="1.213" height="52.34"/>
				<rect x="396.202" y="324.421" fill="#B3B3B3" width="1.213" height="52.34"/>
			</g>
			<g>
				<path fill="#2E3192" d="M355.179,366.348c0,5.762-4.679,10.413-10.441,10.413h-31.3c-5.762,0-10.398-4.651-10.398-10.413V335.05
					c0-5.764,4.636-10.629,10.398-10.629h31.3c5.763,0,10.441,4.865,10.441,10.629V366.348z"/>
				<rect x="328.502" y="324.421" fill="#B3B3B3" width="1.214" height="52.34"/>
				<rect x="314.559" y="324.421" fill="#B3B3B3" width="0.809" height="52.34"/>
				<rect x="342.447" y="324.421" fill="#B3B3B3" width="1.213" height="52.34"/>
			</g>
			<g>
				<path fill="#2E3192" d="M301.422,366.348c0,5.762-4.612,10.413-10.374,10.413h-31.3c-5.762,0-10.465-4.651-10.465-10.413V335.05
					c0-5.764,4.703-10.629,10.465-10.629h31.3c5.762,0,10.374,4.865,10.374,10.629V366.348z"/>
				<rect x="274.746" y="324.421" fill="#B3B3B3" width="1.213" height="52.34"/>
				<rect x="260.803" y="324.421" fill="#B3B3B3" width="1.212" height="52.34"/>
				<rect x="289.095" y="324.421" fill="#B3B3B3" width="0.809" height="52.34"/>
			</g>
			<rect x="242.816" y="49.78" fill="#333333" width="226.342" height="5.052"/>
			<rect x="243.221" y="431.729" fill="#333333" width="223.107" height="5.053"/>
			<rect x="464.105" y="50.184" fill="#333333" width="5.053" height="386.598"/>
			<rect x="242.816" y="50.184" fill="#333333" width="5.052" height="386.598"/>
			<g>
				<path fill="#2E3192" d="M462.69,419.882c0,5.763-4.671,10.435-10.434,10.435h-31.272c-5.763,0-10.434-4.672-10.434-10.435
					v-31.272c0-5.762,4.671-10.433,10.434-10.433h31.272c5.763,0,10.434,4.671,10.434,10.433V419.882z"/>
				<rect x="436.016" y="378.177" fill="#B3B3B3" width="1.212" height="52.14"/>
				<rect x="421.666" y="378.177" fill="#B3B3B3" width="1.213" height="52.14"/>
				<rect x="449.959" y="378.177" fill="#B3B3B3" width="1.212" height="52.14"/>
			</g>
			<g>
				<path fill="#2E3192" d="M408.935,420.014c0,5.763-4.729,10.303-10.491,10.303h-31.299c-5.762,0-10.349-4.54-10.349-10.303
					v-31.298c0-5.764,4.586-10.539,10.349-10.539h31.299c5.762,0,10.491,4.775,10.491,10.539V420.014z"/>
				<rect x="382.258" y="378.177" fill="#B3B3B3" width="1.212" height="52.14"/>
				<rect x="367.91" y="378.177" fill="#B3B3B3" width="1.213" height="52.14"/>
				<rect x="396.202" y="378.177" fill="#B3B3B3" width="1.213" height="52.14"/>
			</g>
			<g>
				<path fill="#2E3192" d="M355.179,420.014c0,5.763-4.661,10.303-10.423,10.303h-31.3c-5.762,0-10.416-4.54-10.416-10.303v-31.298
					c0-5.764,4.654-10.539,10.416-10.539h31.3c5.762,0,10.423,4.775,10.423,10.539V420.014z"/>
				<rect x="328.502" y="378.177" fill="#B3B3B3" width="1.214" height="52.14"/>
				<rect x="314.559" y="378.177" fill="#B3B3B3" width="1.01" height="52.14"/>
				<rect x="342.447" y="378.177" fill="#B3B3B3" width="1.213" height="52.14"/>
			</g>
			<g>
				<path fill="#2E3192" d="M301.422,420.014c0,5.763-4.593,10.303-10.356,10.303h-31.299c-5.762,0-10.484-4.54-10.484-10.303
					v-31.298c0-5.764,4.722-10.539,10.484-10.539h31.299c5.763,0,10.356,4.775,10.356,10.539V420.014z"/>
				<rect x="274.746" y="378.177" fill="#B3B3B3" width="1.213" height="52.14"/>
				<rect x="260.803" y="378.177" fill="#B3B3B3" width="1.212" height="52.14"/>
				<rect x="289.095" y="378.177" fill="#B3B3B3" width="0.809" height="52.14"/>
			</g>
		</g>
		<g>
			<rect x="473.774" y="51.195" fill="#E6E6E6" width="222.906" height="383.164"/>
			<g>
				<path fill="#2E3192" d="M692.032,97.952c0,5.762-4.671,10.434-10.434,10.434h-31.272c-5.763,0-10.434-4.672-10.434-10.434V66.68
					c0-5.762,4.671-10.434,10.434-10.434h31.272c5.763,0,10.434,4.671,10.434,10.434V97.952z"/>
				<rect x="665.357" y="56.247" fill="#B3B3B3" width="1.212" height="52.14"/>
				<rect x="651.008" y="56.247" fill="#B3B3B3" width="1.213" height="52.14"/>
				<rect x="679.301" y="56.247" fill="#B3B3B3" width="1.212" height="52.14"/>
			</g>
			<g>
				<path fill="#2E3192" d="M638.276,97.903c0,5.763-4.747,10.483-10.508,10.483h-31.301c-5.762,0-10.33-4.72-10.33-10.483V66.604
					c0-5.762,4.568-10.358,10.33-10.358h31.301c5.761,0,10.508,4.596,10.508,10.358V97.903z"/>
				<rect x="611.601" y="56.247" fill="#B3B3B3" width="1.211" height="52.14"/>
				<rect x="597.251" y="56.247" fill="#B3B3B3" width="1.213" height="52.14"/>
				<rect x="625.544" y="56.247" fill="#B3B3B3" width="1.213" height="52.14"/>
			</g>
			<g>
				<path fill="#2E3192" d="M584.521,97.903c0,5.763-4.679,10.483-10.441,10.483h-31.3c-5.762,0-10.397-4.72-10.397-10.483V66.604
					c0-5.762,4.636-10.358,10.397-10.358h31.3c5.763,0,10.441,4.596,10.441,10.358V97.903z"/>
				<rect x="557.844" y="56.247" fill="#B3B3B3" width="1.214" height="52.14"/>
				<rect x="543.9" y="56.247" fill="#B3B3B3" width="0.809" height="52.14"/>
				<rect x="571.788" y="56.247" fill="#B3B3B3" width="1.214" height="52.14"/>
			</g>
			<g>
				<path fill="#2E3192" d="M530.765,97.903c0,5.763-4.613,10.483-10.375,10.483h-31.299c-5.763,0-10.466-4.72-10.466-10.483V66.604
					c0-5.762,4.703-10.358,10.466-10.358h31.299c5.762,0,10.375,4.596,10.375,10.358V97.903z"/>
				<rect x="504.088" y="56.247" fill="#B3B3B3" width="1.214" height="52.14"/>
				<rect x="490.145" y="56.247" fill="#B3B3B3" width="1.212" height="52.14"/>
				<rect x="518.437" y="56.247" fill="#B3B3B3" width="0.809" height="52.14"/>
			</g>
			<g>
				<path fill="#2E3192" d="M692.032,151.647c0,5.762-4.688,10.494-10.452,10.494h-31.343c-5.761,0-10.345-4.732-10.345-10.494
					v-31.342c0-5.762,4.584-10.505,10.345-10.505h31.343c5.764,0,10.452,4.743,10.452,10.505V151.647z"/>
				<rect x="665.357" y="109.8" fill="#B3B3B3" width="1.212" height="52.341"/>
				<rect x="651.008" y="109.8" fill="#B3B3B3" width="1.213" height="52.341"/>
				<rect x="679.301" y="109.8" fill="#B3B3B3" width="1.212" height="52.341"/>
			</g>
			<g>
				<path fill="#2E3192" d="M638.276,151.592c0,5.762-4.747,10.55-10.508,10.55h-31.301c-5.762,0-10.33-4.788-10.33-10.55v-31.298
					c0-5.762,4.568-10.493,10.33-10.493h31.301c5.761,0,10.508,4.731,10.508,10.493V151.592z"/>
				<rect x="611.601" y="109.8" fill="#B3B3B3" width="1.211" height="52.341"/>
				<rect x="597.251" y="109.8" fill="#B3B3B3" width="1.213" height="52.341"/>
				<rect x="625.544" y="109.8" fill="#B3B3B3" width="1.213" height="52.341"/>
			</g>
			<g>
				<path fill="#2E3192" d="M584.521,151.592c0,5.762-4.679,10.55-10.441,10.55h-31.3c-5.762,0-10.397-4.788-10.397-10.55v-31.298
					c0-5.762,4.636-10.493,10.397-10.493h31.3c5.763,0,10.441,4.731,10.441,10.493V151.592z"/>
				<rect x="557.844" y="109.8" fill="#B3B3B3" width="1.214" height="52.341"/>
				<rect x="543.9" y="109.8" fill="#B3B3B3" width="0.809" height="52.341"/>
				<rect x="571.788" y="109.8" fill="#B3B3B3" width="1.214" height="52.341"/>
			</g>
			<g>
				<path fill="#2E3192" d="M530.765,151.592c0,5.762-4.613,10.55-10.375,10.55h-31.299c-5.763,0-10.466-4.788-10.466-10.55v-31.298
					c0-5.762,4.703-10.493,10.466-10.493h31.299c5.762,0,10.375,4.731,10.375,10.493V151.592z"/>
				<rect x="504.088" y="109.8" fill="#B3B3B3" width="1.214" height="52.341"/>
				<rect x="490.145" y="109.8" fill="#B3B3B3" width="1.212" height="52.341"/>
				<rect x="518.437" y="109.8" fill="#B3B3B3" width="0.809" height="52.341"/>
			</g>
			<g>
				<path fill="#2E3192" d="M692.032,205.374c0,5.762-4.688,10.523-10.452,10.523h-31.343c-5.761,0-10.345-4.761-10.345-10.523
					v-31.342c0-5.762,4.584-10.476,10.345-10.476h31.343c5.764,0,10.452,4.713,10.452,10.476V205.374z"/>
				<rect x="665.357" y="163.557" fill="#B3B3B3" width="1.212" height="52.341"/>
				<rect x="651.008" y="163.557" fill="#B3B3B3" width="1.213" height="52.341"/>
				<rect x="679.301" y="163.557" fill="#B3B3B3" width="1.212" height="52.341"/>
			</g>
			<g>
				<path fill="#2E3192" d="M638.276,205.281c0,5.762-4.747,10.616-10.508,10.616h-31.301c-5.762,0-10.33-4.854-10.33-10.616
					v-31.299c0-5.763,4.568-10.426,10.33-10.426h31.301c5.761,0,10.508,4.663,10.508,10.426V205.281z"/>
				<rect x="611.601" y="163.557" fill="#B3B3B3" width="1.211" height="52.341"/>
				<rect x="597.251" y="163.557" fill="#B3B3B3" width="1.213" height="52.341"/>
				<rect x="625.544" y="163.557" fill="#B3B3B3" width="1.213" height="52.341"/>
			</g>
			<g>
				<path fill="#2E3192" d="M584.521,205.281c0,5.762-4.679,10.616-10.441,10.616h-31.3c-5.762,0-10.397-4.854-10.397-10.616
					v-31.299c0-5.763,4.636-10.426,10.397-10.426h31.3c5.763,0,10.441,4.663,10.441,10.426V205.281z"/>
				<rect x="557.844" y="163.557" fill="#B3B3B3" width="1.214" height="52.341"/>
				<rect x="543.9" y="163.557" fill="#B3B3B3" width="0.809" height="52.341"/>
				<rect x="571.788" y="163.557" fill="#B3B3B3" width="1.214" height="52.341"/>
			</g>
			<g>
				<path fill="#2E3192" d="M530.765,205.281c0,5.762-4.613,10.616-10.375,10.616h-31.299c-5.763,0-10.466-4.854-10.466-10.616
					v-31.299c0-5.763,4.703-10.426,10.466-10.426h31.299c5.762,0,10.375,4.663,10.375,10.426V205.281z"/>
				<rect x="504.088" y="163.557" fill="#B3B3B3" width="1.214" height="52.341"/>
				<rect x="490.145" y="163.557" fill="#B3B3B3" width="1.212" height="52.341"/>
				<rect x="518.437" y="163.557" fill="#B3B3B3" width="0.809" height="52.341"/>
			</g>
			<g>
				<path fill="#2E3192" d="M692.032,259.019c0,5.763-4.671,10.434-10.434,10.434h-31.272c-5.763,0-10.434-4.671-10.434-10.434
					v-31.272c0-5.762,4.671-10.434,10.434-10.434h31.272c5.763,0,10.434,4.671,10.434,10.434V259.019z"/>
				<rect x="665.357" y="217.312" fill="#B3B3B3" width="1.212" height="52.14"/>
				<rect x="651.008" y="217.312" fill="#B3B3B3" width="1.213" height="52.14"/>
				<rect x="679.301" y="217.312" fill="#B3B3B3" width="1.212" height="52.14"/>
			</g>
			<g>
				<path fill="#2E3192" d="M638.276,258.97c0,5.763-4.747,10.482-10.508,10.482h-31.301c-5.762,0-10.33-4.72-10.33-10.482v-31.299
					c0-5.762,4.568-10.358,10.33-10.358h31.301c5.761,0,10.508,4.597,10.508,10.358V258.97z"/>
				<rect x="611.601" y="217.312" fill="#B3B3B3" width="1.211" height="52.14"/>
				<rect x="597.251" y="217.312" fill="#B3B3B3" width="1.213" height="52.14"/>
				<rect x="625.544" y="217.312" fill="#B3B3B3" width="1.213" height="52.14"/>
			</g>
			<g>
				<path fill="#2E3192" d="M584.521,258.97c0,5.763-4.679,10.482-10.441,10.482h-31.3c-5.762,0-10.397-4.72-10.397-10.482v-31.299
					c0-5.762,4.636-10.358,10.397-10.358h31.3c5.763,0,10.441,4.597,10.441,10.358V258.97z"/>
				<rect x="557.844" y="217.312" fill="#B3B3B3" width="1.214" height="52.14"/>
				<rect x="543.9" y="217.312" fill="#B3B3B3" width="0.809" height="52.14"/>
				<rect x="571.788" y="217.312" fill="#B3B3B3" width="1.214" height="52.14"/>
			</g>
			<g>
				<path fill="#2E3192" d="M530.765,258.97c0,5.763-4.613,10.482-10.375,10.482h-31.299c-5.763,0-10.466-4.72-10.466-10.482
					v-31.299c0-5.762,4.703-10.358,10.466-10.358h31.299c5.762,0,10.375,4.597,10.375,10.358V258.97z"/>
				<rect x="504.088" y="217.312" fill="#B3B3B3" width="1.214" height="52.14"/>
				<rect x="490.145" y="217.312" fill="#B3B3B3" width="1.212" height="52.14"/>
				<rect x="518.437" y="217.312" fill="#B3B3B3" width="0.809" height="52.14"/>
			</g>
			<g>
				<path fill="#2E3192" d="M692.032,312.773c0,5.764-4.671,10.434-10.434,10.434h-31.272c-5.763,0-10.434-4.67-10.434-10.434
					v-31.272c0-5.761,4.671-10.433,10.434-10.433h31.272c5.763,0,10.434,4.672,10.434,10.433V312.773z"/>
				<rect x="665.357" y="271.068" fill="#B3B3B3" width="1.212" height="51.938"/>
				<rect x="651.008" y="271.068" fill="#B3B3B3" width="1.213" height="51.938"/>
				<rect x="679.301" y="271.068" fill="#B3B3B3" width="1.212" height="51.938"/>
			</g>
			<g>
				<path fill="#2E3192" d="M638.276,312.658c0,5.762-4.747,10.348-10.508,10.348h-31.301c-5.762,0-10.33-4.586-10.33-10.348V281.36
					c0-5.762,4.568-10.292,10.33-10.292h31.301c5.761,0,10.508,4.53,10.508,10.292V312.658z"/>
				<rect x="611.601" y="271.068" fill="#B3B3B3" width="1.211" height="51.938"/>
				<rect x="597.251" y="271.068" fill="#B3B3B3" width="1.213" height="51.938"/>
				<rect x="625.544" y="271.068" fill="#B3B3B3" width="1.213" height="51.938"/>
			</g>
			<g>
				<path fill="#2E3192" d="M584.521,312.658c0,5.762-4.679,10.348-10.441,10.348h-31.3c-5.762,0-10.397-4.586-10.397-10.348V281.36
					c0-5.762,4.636-10.292,10.397-10.292h31.3c5.763,0,10.441,4.53,10.441,10.292V312.658z"/>
				<rect x="557.844" y="271.068" fill="#B3B3B3" width="1.214" height="51.938"/>
				<rect x="543.9" y="271.068" fill="#B3B3B3" width="0.809" height="51.938"/>
				<rect x="571.788" y="271.068" fill="#B3B3B3" width="1.214" height="51.938"/>
			</g>
			<g>
				<path fill="#2E3192" d="M530.765,312.658c0,5.762-4.613,10.348-10.375,10.348h-31.299c-5.763,0-10.466-4.586-10.466-10.348
					V281.36c0-5.762,4.703-10.292,10.466-10.292h31.299c5.762,0,10.375,4.53,10.375,10.292V312.658z"/>
				<rect x="504.088" y="271.068" fill="#B3B3B3" width="1.214" height="51.938"/>
				<rect x="490.145" y="271.068" fill="#B3B3B3" width="1.212" height="51.938"/>
				<rect x="518.437" y="271.068" fill="#B3B3B3" width="0.809" height="51.938"/>
			</g>
			<g>
				<path fill="#2E3192" d="M692.032,366.127c0,5.762-4.671,10.433-10.434,10.433h-31.272c-5.763,0-10.434-4.671-10.434-10.433
					v-31.273c0-5.763,4.671-10.433,10.434-10.433h31.272c5.763,0,10.434,4.67,10.434,10.433V366.127z"/>
				<rect x="665.357" y="324.421" fill="#B3B3B3" width="1.212" height="52.34"/>
				<rect x="651.008" y="324.421" fill="#B3B3B3" width="1.213" height="52.34"/>
				<rect x="679.301" y="324.421" fill="#B3B3B3" width="1.212" height="52.34"/>
			</g>
			<g>
				<path fill="#2E3192" d="M638.276,366.348c0,5.762-4.747,10.413-10.508,10.413h-31.301c-5.762,0-10.33-4.651-10.33-10.413V335.05
					c0-5.764,4.568-10.629,10.33-10.629h31.301c5.761,0,10.508,4.865,10.508,10.629V366.348z"/>
				<rect x="611.601" y="324.421" fill="#B3B3B3" width="1.211" height="52.34"/>
				<rect x="597.251" y="324.421" fill="#B3B3B3" width="1.213" height="52.34"/>
				<rect x="625.544" y="324.421" fill="#B3B3B3" width="1.213" height="52.34"/>
			</g>
			<g>
				<path fill="#2E3192" d="M584.521,366.348c0,5.762-4.679,10.413-10.441,10.413h-31.3c-5.762,0-10.397-4.651-10.397-10.413V335.05
					c0-5.764,4.636-10.629,10.397-10.629h31.3c5.763,0,10.441,4.865,10.441,10.629V366.348z"/>
				<rect x="557.844" y="324.421" fill="#B3B3B3" width="1.214" height="52.34"/>
				<rect x="543.9" y="324.421" fill="#B3B3B3" width="0.809" height="52.34"/>
				<rect x="571.788" y="324.421" fill="#B3B3B3" width="1.214" height="52.34"/>
			</g>
			<g>
				<path fill="#2E3192" d="M530.765,366.348c0,5.762-4.613,10.413-10.375,10.413h-31.299c-5.763,0-10.466-4.651-10.466-10.413
					V335.05c0-5.764,4.703-10.629,10.466-10.629h31.299c5.762,0,10.375,4.865,10.375,10.629V366.348z"/>
				<rect x="504.088" y="324.421" fill="#B3B3B3" width="1.214" height="52.34"/>
				<rect x="490.145" y="324.421" fill="#B3B3B3" width="1.212" height="52.34"/>
				<rect x="518.437" y="324.421" fill="#B3B3B3" width="0.809" height="52.34"/>
			</g>
			<rect x="472.158" y="49.78" fill="#333333" width="226.342" height="5.052"/>
			<rect x="472.562" y="431.729" fill="#333333" width="223.107" height="5.053"/>
			<rect x="693.447" y="50.184" fill="#333333" width="5.053" height="386.598"/>
			<rect x="472.158" y="50.184" fill="#333333" width="5.052" height="386.598"/>
			<g>
				<path fill="#2E3192" d="M692.032,419.882c0,5.763-4.671,10.435-10.434,10.435h-31.272c-5.763,0-10.434-4.672-10.434-10.435
					v-31.272c0-5.762,4.671-10.433,10.434-10.433h31.272c5.763,0,10.434,4.671,10.434,10.433V419.882z"/>
				<rect x="665.357" y="378.177" fill="#B3B3B3" width="1.212" height="52.14"/>
				<rect x="651.008" y="378.177" fill="#B3B3B3" width="1.213" height="52.14"/>
				<rect x="679.301" y="378.177" fill="#B3B3B3" width="1.212" height="52.14"/>
			</g>
			<g>
				<path fill="#2E3192" d="M638.276,420.014c0,5.763-4.729,10.303-10.49,10.303h-31.3c-5.763,0-10.349-4.54-10.349-10.303v-31.298
					c0-5.764,4.586-10.539,10.349-10.539h31.3c5.762,0,10.49,4.775,10.49,10.539V420.014z"/>
				<rect x="611.601" y="378.177" fill="#B3B3B3" width="1.211" height="52.14"/>
				<rect x="597.251" y="378.177" fill="#B3B3B3" width="1.213" height="52.14"/>
				<rect x="625.544" y="378.177" fill="#B3B3B3" width="1.213" height="52.14"/>
			</g>
			<g>
				<path fill="#2E3192" d="M584.521,420.014c0,5.763-4.661,10.303-10.423,10.303h-31.3c-5.762,0-10.416-4.54-10.416-10.303v-31.298
					c0-5.764,4.654-10.539,10.416-10.539h31.3c5.762,0,10.423,4.775,10.423,10.539V420.014z"/>
				<rect x="557.844" y="378.177" fill="#B3B3B3" width="1.214" height="52.14"/>
				<rect x="543.9" y="378.177" fill="#B3B3B3" width="1.01" height="52.14"/>
				<rect x="571.788" y="378.177" fill="#B3B3B3" width="1.214" height="52.14"/>
			</g>
			<g>
				<path fill="#2E3192" d="M530.765,420.014c0,5.763-4.594,10.303-10.357,10.303h-31.299c-5.762,0-10.483-4.54-10.483-10.303
					v-31.298c0-5.764,4.722-10.539,10.483-10.539h31.299c5.764,0,10.357,4.775,10.357,10.539V420.014z"/>
				<rect x="504.088" y="378.177" fill="#B3B3B3" width="1.214" height="52.14"/>
				<rect x="490.145" y="378.177" fill="#B3B3B3" width="1.212" height="52.14"/>
				<rect x="518.437" y="378.177" fill="#B3B3B3" width="0.809" height="52.14"/>
			</g>
		</g>
		<g>
			<rect x="703.116" y="51.195" fill="#E6E6E6" width="222.906" height="383.163"/>
			<g>
				<path fill="#2E3192" d="M921.374,97.952c0,5.762-4.671,10.434-10.434,10.434h-31.272c-5.763,0-10.434-4.672-10.434-10.434V66.68
					c0-5.762,4.671-10.434,10.434-10.434h31.272c5.763,0,10.434,4.671,10.434,10.434V97.952z"/>
				<rect x="894.699" y="56.247" fill="#B3B3B3" width="1.212" height="52.14"/>
				<rect x="880.35" y="56.247" fill="#B3B3B3" width="1.213" height="52.14"/>
				<rect x="908.643" y="56.247" fill="#B3B3B3" width="1.212" height="52.14"/>
			</g>
			<g>
				<path fill="#2E3192" d="M867.618,97.903c0,5.763-4.747,10.483-10.508,10.483H825.81c-5.762,0-10.33-4.72-10.33-10.483V66.604
					c0-5.762,4.568-10.358,10.33-10.358h31.301c5.761,0,10.508,4.596,10.508,10.358V97.903z"/>
				<rect x="840.942" y="56.247" fill="#B3B3B3" width="1.211" height="52.14"/>
				<rect x="826.593" y="56.247" fill="#B3B3B3" width="1.213" height="52.14"/>
				<rect x="854.886" y="56.247" fill="#B3B3B3" width="1.213" height="52.14"/>
			</g>
			<g>
				<path fill="#2E3192" d="M813.862,97.903c0,5.763-4.679,10.483-10.441,10.483h-31.3c-5.762,0-10.397-4.72-10.397-10.483V66.604
					c0-5.762,4.636-10.358,10.397-10.358h31.3c5.763,0,10.441,4.596,10.441,10.358V97.903z"/>
				<rect x="787.186" y="56.247" fill="#B3B3B3" width="1.214" height="52.14"/>
				<rect x="773.242" y="56.247" fill="#B3B3B3" width="0.809" height="52.14"/>
				<rect x="801.13" y="56.247" fill="#B3B3B3" width="1.214" height="52.14"/>
			</g>
			<g>
				<path fill="#2E3192" d="M760.106,97.903c0,5.763-4.613,10.483-10.375,10.483h-31.299c-5.763,0-10.466-4.72-10.466-10.483V66.604
					c0-5.762,4.703-10.358,10.466-10.358h31.299c5.762,0,10.375,4.596,10.375,10.358V97.903z"/>
				<rect x="733.43" y="56.247" fill="#B3B3B3" width="1.214" height="52.14"/>
				<rect x="719.486" y="56.247" fill="#B3B3B3" width="1.212" height="52.14"/>
				<rect x="747.778" y="56.247" fill="#B3B3B3" width="0.809" height="52.14"/>
			</g>
			<g>
				<path fill="#2E3192" d="M921.374,151.647c0,5.762-4.688,10.494-10.452,10.494h-31.343c-5.761,0-10.345-4.732-10.345-10.494
					v-31.342c0-5.762,4.584-10.505,10.345-10.505h31.343c5.764,0,10.452,4.743,10.452,10.505V151.647z"/>
				<rect x="894.699" y="109.8" fill="#B3B3B3" width="1.212" height="52.341"/>
				<rect x="880.35" y="109.8" fill="#B3B3B3" width="1.213" height="52.341"/>
				<rect x="908.643" y="109.8" fill="#B3B3B3" width="1.212" height="52.341"/>
			</g>
			<g>
				<path fill="#2E3192" d="M867.618,151.592c0,5.762-4.747,10.55-10.508,10.55H825.81c-5.762,0-10.33-4.788-10.33-10.55v-31.298
					c0-5.762,4.568-10.493,10.33-10.493h31.301c5.761,0,10.508,4.731,10.508,10.493V151.592z"/>
				<rect x="840.942" y="109.8" fill="#B3B3B3" width="1.211" height="52.341"/>
				<rect x="826.593" y="109.8" fill="#B3B3B3" width="1.213" height="52.341"/>
				<rect x="854.886" y="109.8" fill="#B3B3B3" width="1.213" height="52.341"/>
			</g>
			<g>
				<path fill="#2E3192" d="M813.862,151.592c0,5.762-4.679,10.55-10.441,10.55h-31.3c-5.762,0-10.397-4.788-10.397-10.55v-31.298
					c0-5.762,4.636-10.493,10.397-10.493h31.3c5.763,0,10.441,4.731,10.441,10.493V151.592z"/>
				<rect x="787.186" y="109.8" fill="#B3B3B3" width="1.214" height="52.341"/>
				<rect x="773.242" y="109.8" fill="#B3B3B3" width="0.809" height="52.341"/>
				<rect x="801.13" y="109.8" fill="#B3B3B3" width="1.214" height="52.341"/>
			</g>
			<g>
				<path fill="#2E3192" d="M760.106,151.592c0,5.762-4.613,10.55-10.375,10.55h-31.299c-5.763,0-10.466-4.788-10.466-10.55v-31.298
					c0-5.762,4.703-10.493,10.466-10.493h31.299c5.762,0,10.375,4.731,10.375,10.493V151.592z"/>
				<rect x="733.43" y="109.8" fill="#B3B3B3" width="1.214" height="52.341"/>
				<rect x="719.486" y="109.8" fill="#B3B3B3" width="1.212" height="52.341"/>
				<rect x="747.778" y="109.8" fill="#B3B3B3" width="0.809" height="52.341"/>
			</g>
			<g>
				<path fill="#2E3192" d="M921.374,205.374c0,5.762-4.688,10.523-10.452,10.523h-31.343c-5.761,0-10.345-4.761-10.345-10.523
					v-31.342c0-5.762,4.584-10.476,10.345-10.476h31.343c5.764,0,10.452,4.713,10.452,10.476V205.374z"/>
				<rect x="894.699" y="163.557" fill="#B3B3B3" width="1.212" height="52.341"/>
				<rect x="880.35" y="163.557" fill="#B3B3B3" width="1.213" height="52.341"/>
				<rect x="908.643" y="163.557" fill="#B3B3B3" width="1.212" height="52.341"/>
			</g>
			<g>
				<path fill="#2E3192" d="M867.618,205.281c0,5.762-4.747,10.616-10.508,10.616H825.81c-5.762,0-10.33-4.854-10.33-10.616v-31.299
					c0-5.763,4.568-10.426,10.33-10.426h31.301c5.761,0,10.508,4.663,10.508,10.426V205.281z"/>
				<rect x="840.942" y="163.557" fill="#B3B3B3" width="1.211" height="52.341"/>
				<rect x="826.593" y="163.557" fill="#B3B3B3" width="1.213" height="52.341"/>
				<rect x="854.886" y="163.557" fill="#B3B3B3" width="1.213" height="52.341"/>
			</g>
			<g>
				<path fill="#2E3192" d="M813.862,205.281c0,5.762-4.679,10.616-10.441,10.616h-31.3c-5.762,0-10.397-4.854-10.397-10.616
					v-31.299c0-5.763,4.636-10.426,10.397-10.426h31.3c5.763,0,10.441,4.663,10.441,10.426V205.281z"/>
				<rect x="787.186" y="163.557" fill="#B3B3B3" width="1.214" height="52.341"/>
				<rect x="773.242" y="163.557" fill="#B3B3B3" width="0.809" height="52.341"/>
				<rect x="801.13" y="163.557" fill="#B3B3B3" width="1.214" height="52.341"/>
			</g>
			<g>
				<path fill="#2E3192" d="M760.106,205.281c0,5.762-4.613,10.616-10.375,10.616h-31.299c-5.763,0-10.466-4.854-10.466-10.616
					v-31.299c0-5.763,4.703-10.426,10.466-10.426h31.299c5.762,0,10.375,4.663,10.375,10.426V205.281z"/>
				<rect x="733.43" y="163.557" fill="#B3B3B3" width="1.214" height="52.341"/>
				<rect x="719.486" y="163.557" fill="#B3B3B3" width="1.212" height="52.341"/>
				<rect x="747.778" y="163.557" fill="#B3B3B3" width="0.809" height="52.341"/>
			</g>
			<g>
				<path fill="#2E3192" d="M921.374,259.018c0,5.764-4.671,10.434-10.434,10.434h-31.272c-5.763,0-10.434-4.67-10.434-10.434
					v-31.271c0-5.762,4.671-10.434,10.434-10.434h31.272c5.763,0,10.434,4.671,10.434,10.434V259.018z"/>
				<rect x="894.699" y="217.312" fill="#B3B3B3" width="1.212" height="52.139"/>
				<rect x="880.35" y="217.312" fill="#B3B3B3" width="1.213" height="52.139"/>
				<rect x="908.643" y="217.312" fill="#B3B3B3" width="1.212" height="52.139"/>
			</g>
			<g>
				<path fill="#2E3192" d="M867.618,258.969c0,5.764-4.747,10.482-10.508,10.482H825.81c-5.762,0-10.33-4.719-10.33-10.482v-31.298
					c0-5.762,4.568-10.358,10.33-10.358h31.301c5.761,0,10.508,4.597,10.508,10.358V258.969z"/>
				<rect x="840.942" y="217.312" fill="#B3B3B3" width="1.211" height="52.139"/>
				<rect x="826.593" y="217.312" fill="#B3B3B3" width="1.213" height="52.139"/>
				<rect x="854.886" y="217.312" fill="#B3B3B3" width="1.213" height="52.139"/>
			</g>
			<g>
				<path fill="#2E3192" d="M813.862,258.969c0,5.764-4.679,10.482-10.441,10.482h-31.3c-5.762,0-10.397-4.719-10.397-10.482
					v-31.298c0-5.762,4.636-10.358,10.397-10.358h31.3c5.763,0,10.441,4.597,10.441,10.358V258.969z"/>
				<rect x="787.186" y="217.312" fill="#B3B3B3" width="1.214" height="52.139"/>
				<rect x="773.242" y="217.312" fill="#B3B3B3" width="0.809" height="52.139"/>
				<rect x="801.13" y="217.312" fill="#B3B3B3" width="1.214" height="52.139"/>
			</g>
			<g>
				<path fill="#2E3192" d="M760.106,258.969c0,5.764-4.613,10.482-10.375,10.482h-31.299c-5.763,0-10.466-4.719-10.466-10.482
					v-31.298c0-5.762,4.703-10.358,10.466-10.358h31.299c5.762,0,10.375,4.597,10.375,10.358V258.969z"/>
				<rect x="733.43" y="217.312" fill="#B3B3B3" width="1.214" height="52.139"/>
				<rect x="719.486" y="217.312" fill="#B3B3B3" width="1.212" height="52.139"/>
				<rect x="747.778" y="217.312" fill="#B3B3B3" width="0.809" height="52.139"/>
			</g>
			<g>
				<path fill="#2E3192" d="M921.374,312.773c0,5.764-4.671,10.434-10.434,10.434h-31.272c-5.763,0-10.434-4.67-10.434-10.434V281.5
					c0-5.76,4.671-10.432,10.434-10.432h31.272c5.763,0,10.434,4.672,10.434,10.432V312.773z"/>
				<rect x="894.699" y="271.068" fill="#B3B3B3" width="1.212" height="51.938"/>
				<rect x="880.35" y="271.068" fill="#B3B3B3" width="1.213" height="51.938"/>
				<rect x="908.643" y="271.068" fill="#B3B3B3" width="1.212" height="51.938"/>
			</g>
			<g>
				<path fill="#2E3192" d="M867.618,312.658c0,5.762-4.747,10.348-10.508,10.348H825.81c-5.762,0-10.33-4.586-10.33-10.348v-31.299
					c0-5.762,4.568-10.291,10.33-10.291h31.301c5.761,0,10.508,4.529,10.508,10.291V312.658z"/>
				<rect x="840.942" y="271.068" fill="#B3B3B3" width="1.211" height="51.938"/>
				<rect x="826.593" y="271.068" fill="#B3B3B3" width="1.213" height="51.938"/>
				<rect x="854.886" y="271.068" fill="#B3B3B3" width="1.213" height="51.938"/>
			</g>
			<g>
				<path fill="#2E3192" d="M813.862,312.658c0,5.762-4.679,10.348-10.441,10.348h-31.3c-5.762,0-10.397-4.586-10.397-10.348
					v-31.299c0-5.762,4.636-10.291,10.397-10.291h31.3c5.763,0,10.441,4.529,10.441,10.291V312.658z"/>
				<rect x="787.186" y="271.068" fill="#B3B3B3" width="1.214" height="51.938"/>
				<rect x="773.242" y="271.068" fill="#B3B3B3" width="0.809" height="51.938"/>
				<rect x="801.13" y="271.068" fill="#B3B3B3" width="1.214" height="51.938"/>
			</g>
			<g>
				<path fill="#2E3192" d="M760.106,312.658c0,5.762-4.613,10.348-10.375,10.348h-31.299c-5.763,0-10.466-4.586-10.466-10.348
					v-31.299c0-5.762,4.703-10.291,10.466-10.291h31.299c5.762,0,10.375,4.529,10.375,10.291V312.658z"/>
				<rect x="733.43" y="271.068" fill="#B3B3B3" width="1.214" height="51.938"/>
				<rect x="719.486" y="271.068" fill="#B3B3B3" width="1.212" height="51.938"/>
				<rect x="747.778" y="271.068" fill="#B3B3B3" width="0.809" height="51.938"/>
			</g>
			<g>
				<path fill="#2E3192" d="M921.374,366.127c0,5.762-4.671,10.432-10.434,10.432h-31.272c-5.763,0-10.434-4.67-10.434-10.432
					v-31.273c0-5.764,4.671-10.434,10.434-10.434h31.272c5.763,0,10.434,4.67,10.434,10.434V366.127z"/>
				<rect x="894.699" y="324.42" fill="#B3B3B3" width="1.212" height="52.34"/>
				<rect x="880.35" y="324.42" fill="#B3B3B3" width="1.213" height="52.34"/>
				<rect x="908.643" y="324.42" fill="#B3B3B3" width="1.212" height="52.34"/>
			</g>
			<g>
				<path fill="#2E3192" d="M867.618,366.348c0,5.762-4.747,10.412-10.508,10.412H825.81c-5.762,0-10.33-4.65-10.33-10.412v-31.299
					c0-5.764,4.568-10.629,10.33-10.629h31.301c5.761,0,10.508,4.865,10.508,10.629V366.348z"/>
				<rect x="840.942" y="324.42" fill="#B3B3B3" width="1.211" height="52.34"/>
				<rect x="826.593" y="324.42" fill="#B3B3B3" width="1.213" height="52.34"/>
				<rect x="854.886" y="324.42" fill="#B3B3B3" width="1.213" height="52.34"/>
			</g>
			<g>
				<path fill="#2E3192" d="M813.862,366.348c0,5.762-4.679,10.412-10.441,10.412h-31.3c-5.762,0-10.397-4.65-10.397-10.412v-31.299
					c0-5.764,4.636-10.629,10.397-10.629h31.3c5.763,0,10.441,4.865,10.441,10.629V366.348z"/>
				<rect x="787.186" y="324.42" fill="#B3B3B3" width="1.214" height="52.34"/>
				<rect x="773.242" y="324.42" fill="#B3B3B3" width="0.809" height="52.34"/>
				<rect x="801.13" y="324.42" fill="#B3B3B3" width="1.214" height="52.34"/>
			</g>
			<g>
				<path fill="#2E3192" d="M760.106,366.348c0,5.762-4.613,10.412-10.375,10.412h-31.299c-5.763,0-10.466-4.65-10.466-10.412
					v-31.299c0-5.764,4.703-10.629,10.466-10.629h31.299c5.762,0,10.375,4.865,10.375,10.629V366.348z"/>
				<rect x="733.43" y="324.42" fill="#B3B3B3" width="1.214" height="52.34"/>
				<rect x="719.486" y="324.42" fill="#B3B3B3" width="1.212" height="52.34"/>
				<rect x="747.778" y="324.42" fill="#B3B3B3" width="0.809" height="52.34"/>
			</g>
			<rect x="701.5" y="49.78" fill="#333333" width="226.342" height="5.052"/>
			<rect x="701.904" y="431.729" fill="#333333" width="223.107" height="5.053"/>
			<rect x="922.789" y="50.184" fill="#333333" width="5.053" height="386.597"/>
			<rect x="701.5" y="50.184" fill="#333333" width="5.052" height="386.597"/>
			<g>
				<path fill="#2E3192" d="M921.374,419.881c0,5.764-4.671,10.436-10.434,10.436h-31.272c-5.763,0-10.434-4.672-10.434-10.436
					v-31.271c0-5.762,4.671-10.434,10.434-10.434h31.272c5.763,0,10.434,4.672,10.434,10.434V419.881z"/>
				<rect x="894.699" y="378.176" fill="#B3B3B3" width="1.212" height="52.141"/>
				<rect x="880.35" y="378.176" fill="#B3B3B3" width="1.213" height="52.141"/>
				<rect x="908.643" y="378.176" fill="#B3B3B3" width="1.212" height="52.141"/>
			</g>
			<g>
				<path fill="#2E3192" d="M867.618,420.014c0,5.762-4.729,10.303-10.49,10.303h-31.3c-5.763,0-10.349-4.541-10.349-10.303v-31.299
					c0-5.764,4.586-10.539,10.349-10.539h31.3c5.762,0,10.49,4.775,10.49,10.539V420.014z"/>
				<rect x="840.942" y="378.176" fill="#B3B3B3" width="1.211" height="52.141"/>
				<rect x="826.593" y="378.176" fill="#B3B3B3" width="1.213" height="52.141"/>
				<rect x="854.886" y="378.176" fill="#B3B3B3" width="1.213" height="52.141"/>
			</g>
			<g>
				<path fill="#2E3192" d="M813.862,420.014c0,5.762-4.661,10.303-10.423,10.303h-31.3c-5.762,0-10.416-4.541-10.416-10.303
					v-31.299c0-5.764,4.654-10.539,10.416-10.539h31.3c5.762,0,10.423,4.775,10.423,10.539V420.014z"/>
				<rect x="787.186" y="378.176" fill="#B3B3B3" width="1.214" height="52.141"/>
				<rect x="773.242" y="378.176" fill="#B3B3B3" width="1.01" height="52.141"/>
				<rect x="801.13" y="378.176" fill="#B3B3B3" width="1.214" height="52.141"/>
			</g>
			<g>
				<path fill="#2E3192" d="M760.106,420.014c0,5.762-4.594,10.303-10.357,10.303H718.45c-5.762,0-10.483-4.541-10.483-10.303
					v-31.299c0-5.764,4.722-10.539,10.483-10.539h31.299c5.764,0,10.357,4.775,10.357,10.539V420.014z"/>
				<rect x="733.43" y="378.176" fill="#B3B3B3" width="1.214" height="52.141"/>
				<rect x="719.486" y="378.176" fill="#B3B3B3" width="1.212" height="52.141"/>
				<rect x="747.778" y="378.176" fill="#B3B3B3" width="0.809" height="52.141"/>
			</g>
		</g>
		<g>
			<rect x="932.458" y="51.195" fill="#E6E6E6" width="222.906" height="383.163"/>
			<g>
				<path fill="#2E3192" d="M1150.716,97.952c0,5.762-4.671,10.434-10.434,10.434h-31.272c-5.763,0-10.434-4.672-10.434-10.434
					V66.68c0-5.762,4.671-10.434,10.434-10.434h31.272c5.763,0,10.434,4.671,10.434,10.434V97.952z"/>
				<rect x="1124.041" y="56.247" fill="#B3B3B3" width="1.212" height="52.14"/>
				<rect x="1109.691" y="56.247" fill="#B3B3B3" width="1.213" height="52.14"/>
				<rect x="1137.984" y="56.247" fill="#B3B3B3" width="1.212" height="52.14"/>
			</g>
			<g>
				<path fill="#2E3192" d="M1096.96,97.903c0,5.763-4.747,10.483-10.508,10.483h-31.301c-5.762,0-10.33-4.72-10.33-10.483V66.604
					c0-5.762,4.568-10.358,10.33-10.358h31.301c5.761,0,10.508,4.596,10.508,10.358V97.903z"/>
				<rect x="1070.284" y="56.247" fill="#B3B3B3" width="1.211" height="52.14"/>
				<rect x="1055.935" y="56.247" fill="#B3B3B3" width="1.213" height="52.14"/>
				<rect x="1084.228" y="56.247" fill="#B3B3B3" width="1.213" height="52.14"/>
			</g>
			<g>
				<path fill="#2E3192" d="M1043.204,97.903c0,5.763-4.679,10.483-10.441,10.483h-31.3c-5.762,0-10.397-4.72-10.397-10.483V66.604
					c0-5.762,4.636-10.358,10.397-10.358h31.3c5.763,0,10.441,4.596,10.441,10.358V97.903z"/>
				<rect x="1016.527" y="56.247" fill="#B3B3B3" width="1.214" height="52.14"/>
				<rect x="1002.584" y="56.247" fill="#B3B3B3" width="0.809" height="52.14"/>
				<rect x="1030.472" y="56.247" fill="#B3B3B3" width="1.214" height="52.14"/>
			</g>
			<g>
				<path fill="#2E3192" d="M989.448,97.903c0,5.763-4.613,10.483-10.375,10.483h-31.299c-5.763,0-10.466-4.72-10.466-10.483V66.604
					c0-5.762,4.703-10.358,10.466-10.358h31.299c5.762,0,10.375,4.596,10.375,10.358V97.903z"/>
				<rect x="962.771" y="56.247" fill="#B3B3B3" width="1.214" height="52.14"/>
				<rect x="948.828" y="56.247" fill="#B3B3B3" width="1.212" height="52.14"/>
				<rect x="977.12" y="56.247" fill="#B3B3B3" width="0.809" height="52.14"/>
			</g>
			<g>
				<path fill="#2E3192" d="M1150.716,151.647c0,5.762-4.688,10.494-10.452,10.494h-31.343c-5.761,0-10.345-4.732-10.345-10.494
					v-31.342c0-5.762,4.584-10.505,10.345-10.505h31.343c5.764,0,10.452,4.743,10.452,10.505V151.647z"/>
				<rect x="1124.041" y="109.8" fill="#B3B3B3" width="1.212" height="52.341"/>
				<rect x="1109.691" y="109.8" fill="#B3B3B3" width="1.213" height="52.341"/>
				<rect x="1137.984" y="109.8" fill="#B3B3B3" width="1.212" height="52.341"/>
			</g>
			<g>
				<path fill="#2E3192" d="M1096.96,151.592c0,5.762-4.747,10.55-10.508,10.55h-31.301c-5.762,0-10.33-4.788-10.33-10.55v-31.298
					c0-5.762,4.568-10.493,10.33-10.493h31.301c5.761,0,10.508,4.731,10.508,10.493V151.592z"/>
				<rect x="1070.284" y="109.8" fill="#B3B3B3" width="1.211" height="52.341"/>
				<rect x="1055.935" y="109.8" fill="#B3B3B3" width="1.213" height="52.341"/>
				<rect x="1084.228" y="109.8" fill="#B3B3B3" width="1.213" height="52.341"/>
			</g>
			<g>
				<path fill="#2E3192" d="M1043.204,151.592c0,5.762-4.679,10.55-10.441,10.55h-31.3c-5.762,0-10.397-4.788-10.397-10.55v-31.298
					c0-5.762,4.636-10.493,10.397-10.493h31.3c5.763,0,10.441,4.731,10.441,10.493V151.592z"/>
				<rect x="1016.527" y="109.8" fill="#B3B3B3" width="1.214" height="52.341"/>
				<rect x="1002.584" y="109.8" fill="#B3B3B3" width="0.809" height="52.341"/>
				<rect x="1030.472" y="109.8" fill="#B3B3B3" width="1.214" height="52.341"/>
			</g>
			<g>
				<path fill="#2E3192" d="M989.448,151.592c0,5.762-4.613,10.55-10.375,10.55h-31.299c-5.763,0-10.466-4.788-10.466-10.55v-31.298
					c0-5.762,4.703-10.493,10.466-10.493h31.299c5.762,0,10.375,4.731,10.375,10.493V151.592z"/>
				<rect x="962.771" y="109.8" fill="#B3B3B3" width="1.214" height="52.341"/>
				<rect x="948.828" y="109.8" fill="#B3B3B3" width="1.212" height="52.341"/>
				<rect x="977.12" y="109.8" fill="#B3B3B3" width="0.809" height="52.341"/>
			</g>
			<g>
				<path fill="#2E3192" d="M1150.716,205.374c0,5.762-4.688,10.523-10.452,10.523h-31.343c-5.761,0-10.345-4.761-10.345-10.523
					v-31.342c0-5.762,4.584-10.476,10.345-10.476h31.343c5.764,0,10.452,4.713,10.452,10.476V205.374z"/>
				<rect x="1124.041" y="163.557" fill="#B3B3B3" width="1.212" height="52.341"/>
				<rect x="1109.691" y="163.557" fill="#B3B3B3" width="1.213" height="52.341"/>
				<rect x="1137.984" y="163.557" fill="#B3B3B3" width="1.212" height="52.341"/>
			</g>
			<g>
				<path fill="#2E3192" d="M1096.96,205.281c0,5.762-4.747,10.616-10.508,10.616h-31.301c-5.762,0-10.33-4.854-10.33-10.616
					v-31.299c0-5.763,4.568-10.426,10.33-10.426h31.301c5.761,0,10.508,4.663,10.508,10.426V205.281z"/>
				<rect x="1070.284" y="163.557" fill="#B3B3B3" width="1.211" height="52.341"/>
				<rect x="1055.935" y="163.557" fill="#B3B3B3" width="1.213" height="52.341"/>
				<rect x="1084.228" y="163.557" fill="#B3B3B3" width="1.213" height="52.341"/>
			</g>
			<g>
				<path fill="#2E3192" d="M1043.204,205.281c0,5.762-4.679,10.616-10.441,10.616h-31.3c-5.762,0-10.397-4.854-10.397-10.616
					v-31.299c0-5.763,4.636-10.426,10.397-10.426h31.3c5.763,0,10.441,4.663,10.441,10.426V205.281z"/>
				<rect x="1016.527" y="163.557" fill="#B3B3B3" width="1.214" height="52.341"/>
				<rect x="1002.584" y="163.557" fill="#B3B3B3" width="0.809" height="52.341"/>
				<rect x="1030.472" y="163.557" fill="#B3B3B3" width="1.214" height="52.341"/>
			</g>
			<g>
				<path fill="#2E3192" d="M989.448,205.281c0,5.762-4.613,10.616-10.375,10.616h-31.299c-5.763,0-10.466-4.854-10.466-10.616
					v-31.299c0-5.763,4.703-10.426,10.466-10.426h31.299c5.762,0,10.375,4.663,10.375,10.426V205.281z"/>
				<rect x="962.771" y="163.557" fill="#B3B3B3" width="1.214" height="52.341"/>
				<rect x="948.828" y="163.557" fill="#B3B3B3" width="1.212" height="52.341"/>
				<rect x="977.12" y="163.557" fill="#B3B3B3" width="0.809" height="52.341"/>
			</g>
			<g>
				<path fill="#2E3192" d="M1150.716,259.018c0,5.764-4.671,10.434-10.434,10.434h-31.272c-5.763,0-10.434-4.67-10.434-10.434
					v-31.271c0-5.762,4.671-10.434,10.434-10.434h31.272c5.763,0,10.434,4.671,10.434,10.434V259.018z"/>
				<rect x="1124.041" y="217.312" fill="#B3B3B3" width="1.212" height="52.139"/>
				<rect x="1109.691" y="217.312" fill="#B3B3B3" width="1.213" height="52.139"/>
				<rect x="1137.984" y="217.312" fill="#B3B3B3" width="1.212" height="52.139"/>
			</g>
			<g>
				<path fill="#2E3192" d="M1096.96,258.969c0,5.764-4.747,10.482-10.508,10.482h-31.301c-5.762,0-10.33-4.719-10.33-10.482
					v-31.298c0-5.762,4.568-10.358,10.33-10.358h31.301c5.761,0,10.508,4.597,10.508,10.358V258.969z"/>
				<rect x="1070.284" y="217.312" fill="#B3B3B3" width="1.211" height="52.139"/>
				<rect x="1055.935" y="217.312" fill="#B3B3B3" width="1.213" height="52.139"/>
				<rect x="1084.228" y="217.312" fill="#B3B3B3" width="1.213" height="52.139"/>
			</g>
			<g>
				<path fill="#2E3192" d="M1043.204,258.969c0,5.764-4.679,10.482-10.441,10.482h-31.3c-5.762,0-10.397-4.719-10.397-10.482
					v-31.298c0-5.762,4.636-10.358,10.397-10.358h31.3c5.763,0,10.441,4.597,10.441,10.358V258.969z"/>
				<rect x="1016.527" y="217.312" fill="#B3B3B3" width="1.214" height="52.139"/>
				<rect x="1002.584" y="217.312" fill="#B3B3B3" width="0.809" height="52.139"/>
				<rect x="1030.472" y="217.312" fill="#B3B3B3" width="1.214" height="52.139"/>
			</g>
			<g>
				<path fill="#2E3192" d="M989.448,258.969c0,5.764-4.613,10.482-10.375,10.482h-31.299c-5.763,0-10.466-4.719-10.466-10.482
					v-31.298c0-5.762,4.703-10.358,10.466-10.358h31.299c5.762,0,10.375,4.597,10.375,10.358V258.969z"/>
				<rect x="962.771" y="217.312" fill="#B3B3B3" width="1.214" height="52.139"/>
				<rect x="948.828" y="217.312" fill="#B3B3B3" width="1.212" height="52.139"/>
				<rect x="977.12" y="217.312" fill="#B3B3B3" width="0.809" height="52.139"/>
			</g>
			<g>
				<path fill="#2E3192" d="M1150.716,312.773c0,5.764-4.671,10.434-10.434,10.434h-31.272c-5.763,0-10.434-4.67-10.434-10.434
					V281.5c0-5.76,4.671-10.432,10.434-10.432h31.272c5.763,0,10.434,4.672,10.434,10.432V312.773z"/>
				<rect x="1124.041" y="271.068" fill="#B3B3B3" width="1.212" height="51.938"/>
				<rect x="1109.691" y="271.068" fill="#B3B3B3" width="1.213" height="51.938"/>
				<rect x="1137.984" y="271.068" fill="#B3B3B3" width="1.212" height="51.938"/>
			</g>
			<g>
				<path fill="#2E3192" d="M1096.96,312.658c0,5.762-4.747,10.348-10.508,10.348h-31.301c-5.762,0-10.33-4.586-10.33-10.348
					v-31.299c0-5.762,4.568-10.291,10.33-10.291h31.301c5.761,0,10.508,4.529,10.508,10.291V312.658z"/>
				<rect x="1070.284" y="271.068" fill="#B3B3B3" width="1.211" height="51.938"/>
				<rect x="1055.935" y="271.068" fill="#B3B3B3" width="1.213" height="51.938"/>
				<rect x="1084.228" y="271.068" fill="#B3B3B3" width="1.213" height="51.938"/>
			</g>
			<g>
				<path fill="#2E3192" d="M1043.204,312.658c0,5.762-4.679,10.348-10.441,10.348h-31.3c-5.762,0-10.397-4.586-10.397-10.348
					v-31.299c0-5.762,4.636-10.291,10.397-10.291h31.3c5.763,0,10.441,4.529,10.441,10.291V312.658z"/>
				<rect x="1016.527" y="271.068" fill="#B3B3B3" width="1.214" height="51.938"/>
				<rect x="1002.584" y="271.068" fill="#B3B3B3" width="0.809" height="51.938"/>
				<rect x="1030.472" y="271.068" fill="#B3B3B3" width="1.214" height="51.938"/>
			</g>
			<g>
				<path fill="#2E3192" d="M989.448,312.658c0,5.762-4.613,10.348-10.375,10.348h-31.299c-5.763,0-10.466-4.586-10.466-10.348
					v-31.299c0-5.762,4.703-10.291,10.466-10.291h31.299c5.762,0,10.375,4.529,10.375,10.291V312.658z"/>
				<rect x="962.771" y="271.068" fill="#B3B3B3" width="1.214" height="51.938"/>
				<rect x="948.828" y="271.068" fill="#B3B3B3" width="1.212" height="51.938"/>
				<rect x="977.12" y="271.068" fill="#B3B3B3" width="0.809" height="51.938"/>
			</g>
			<g>
				<path fill="#2E3192" d="M1150.716,366.127c0,5.762-4.671,10.432-10.434,10.432h-31.272c-5.763,0-10.434-4.67-10.434-10.432
					v-31.273c0-5.764,4.671-10.434,10.434-10.434h31.272c5.763,0,10.434,4.67,10.434,10.434V366.127z"/>
				<rect x="1124.041" y="324.42" fill="#B3B3B3" width="1.212" height="52.34"/>
				<rect x="1109.691" y="324.42" fill="#B3B3B3" width="1.213" height="52.34"/>
				<rect x="1137.984" y="324.42" fill="#B3B3B3" width="1.212" height="52.34"/>
			</g>
			<g>
				<path fill="#2E3192" d="M1096.96,366.348c0,5.762-4.747,10.412-10.508,10.412h-31.301c-5.762,0-10.33-4.65-10.33-10.412v-31.299
					c0-5.764,4.568-10.629,10.33-10.629h31.301c5.761,0,10.508,4.865,10.508,10.629V366.348z"/>
				<rect x="1070.284" y="324.42" fill="#B3B3B3" width="1.211" height="52.34"/>
				<rect x="1055.935" y="324.42" fill="#B3B3B3" width="1.213" height="52.34"/>
				<rect x="1084.228" y="324.42" fill="#B3B3B3" width="1.213" height="52.34"/>
			</g>
			<g>
				<path fill="#2E3192" d="M1043.204,366.348c0,5.762-4.679,10.412-10.441,10.412h-31.3c-5.762,0-10.397-4.65-10.397-10.412
					v-31.299c0-5.764,4.636-10.629,10.397-10.629h31.3c5.763,0,10.441,4.865,10.441,10.629V366.348z"/>
				<rect x="1016.527" y="324.42" fill="#B3B3B3" width="1.214" height="52.34"/>
				<rect x="1002.584" y="324.42" fill="#B3B3B3" width="0.809" height="52.34"/>
				<rect x="1030.472" y="324.42" fill="#B3B3B3" width="1.214" height="52.34"/>
			</g>
			<g>
				<path fill="#2E3192" d="M989.448,366.348c0,5.762-4.613,10.412-10.375,10.412h-31.299c-5.763,0-10.466-4.65-10.466-10.412
					v-31.299c0-5.764,4.703-10.629,10.466-10.629h31.299c5.762,0,10.375,4.865,10.375,10.629V366.348z"/>
				<rect x="962.771" y="324.42" fill="#B3B3B3" width="1.214" height="52.34"/>
				<rect x="948.828" y="324.42" fill="#B3B3B3" width="1.212" height="52.34"/>
				<rect x="977.12" y="324.42" fill="#B3B3B3" width="0.809" height="52.34"/>
			</g>
			<rect x="930.842" y="49.78" fill="#333333" width="226.342" height="5.052"/>
			<rect x="931.246" y="431.729" fill="#333333" width="223.107" height="5.053"/>
			<rect x="1152.131" y="50.184" fill="#333333" width="5.053" height="386.597"/>
			<rect x="930.842" y="50.184" fill="#333333" width="5.052" height="386.597"/>
			<g>
				<path fill="#2E3192" d="M1150.716,419.881c0,5.764-4.671,10.436-10.434,10.436h-31.272c-5.763,0-10.434-4.672-10.434-10.436
					v-31.271c0-5.762,4.671-10.434,10.434-10.434h31.272c5.763,0,10.434,4.672,10.434,10.434V419.881z"/>
				<rect x="1124.041" y="378.176" fill="#B3B3B3" width="1.212" height="52.141"/>
				<rect x="1109.691" y="378.176" fill="#B3B3B3" width="1.213" height="52.141"/>
				<rect x="1137.984" y="378.176" fill="#B3B3B3" width="1.212" height="52.141"/>
			</g>
			<g>
				<path fill="#2E3192" d="M1096.96,420.014c0,5.762-4.729,10.303-10.49,10.303h-31.3c-5.763,0-10.349-4.541-10.349-10.303v-31.299
					c0-5.764,4.586-10.539,10.349-10.539h31.3c5.762,0,10.49,4.775,10.49,10.539V420.014z"/>
				<rect x="1070.284" y="378.176" fill="#B3B3B3" width="1.211" height="52.141"/>
				<rect x="1055.935" y="378.176" fill="#B3B3B3" width="1.213" height="52.141"/>
				<rect x="1084.228" y="378.176" fill="#B3B3B3" width="1.213" height="52.141"/>
			</g>
			<g>
				<path fill="#2E3192" d="M1043.204,420.014c0,5.762-4.661,10.303-10.423,10.303h-31.3c-5.762,0-10.416-4.541-10.416-10.303
					v-31.299c0-5.764,4.654-10.539,10.416-10.539h31.3c5.762,0,10.423,4.775,10.423,10.539V420.014z"/>
				<rect x="1016.527" y="378.176" fill="#B3B3B3" width="1.214" height="52.141"/>
				<rect x="1002.584" y="378.176" fill="#B3B3B3" width="1.01" height="52.141"/>
				<rect x="1030.472" y="378.176" fill="#B3B3B3" width="1.214" height="52.141"/>
			</g>
			<g>
				<path fill="#2E3192" d="M989.448,420.014c0,5.762-4.594,10.303-10.357,10.303h-31.299c-5.762,0-10.483-4.541-10.483-10.303
					v-31.299c0-5.764,4.722-10.539,10.483-10.539h31.299c5.764,0,10.357,4.775,10.357,10.539V420.014z"/>
				<rect x="962.771" y="378.176" fill="#B3B3B3" width="1.214" height="52.141"/>
				<rect x="948.828" y="378.176" fill="#B3B3B3" width="1.212" height="52.141"/>
				<rect x="977.12" y="378.176" fill="#B3B3B3" width="0.809" height="52.141"/>
			</g>
		</g>
	</g>
</g>
<g>
</g>
<g>
</g>
<g>
</g>
<g>
</g>
<g>
</g>
<g>
</g>
</svg>
